<svg width="60" height="60" viewBox="0 0 60 60" fill="none" xmlns="http://www.w3.org/2000/svg">
<path d="M30 17.1429C27.4571 17.1429 24.9713 17.8969 22.857 19.3097C20.7426 20.7224 19.0947 22.7304 18.1215 25.0798C17.1484 27.4291 16.8938 30.0143 17.3899 32.5083C17.886 35.0023 19.1105 37.2933 20.9086 39.0914C22.7067 40.8895 24.9977 42.114 27.4917 42.6101C29.9857 43.1062 32.5709 42.8516 34.9202 41.8785C37.2696 40.9053 39.2776 39.2574 40.6903 37.143C42.1031 35.0287 42.8571 32.5429 42.8571 30C42.8537 26.5911 41.4981 23.3228 39.0876 20.9124C36.6772 18.5019 33.4089 17.1463 30 17.1429ZM30 38.5714C28.3047 38.5714 26.6475 38.0687 25.238 37.1269C23.8284 36.185 22.7298 34.8464 22.081 33.2801C21.4323 31.7139 21.2625 29.9905 21.5933 28.3278C21.924 26.6651 22.7403 25.1378 23.9391 23.9391C25.1378 22.7403 26.6651 21.924 28.3278 21.5933C29.9905 21.2625 31.7139 21.4323 33.2801 22.081C34.8464 22.7298 36.185 23.8284 37.1269 25.238C38.0687 26.6475 38.5714 28.3047 38.5714 30C38.5714 32.2733 37.6684 34.4535 36.0609 36.0609C34.4535 37.6684 32.2733 38.5714 30 38.5714ZM55.7143 21.4286L51.975 21.4736C51.8464 21.1457 51.7093 20.8307 51.5786 20.5414L54.2421 17.8779C55.0456 17.0742 55.4969 15.9843 55.4969 14.8479C55.4969 13.7114 55.0456 12.6215 54.2421 11.8179L48.1821 5.75786C47.3785 4.95441 46.2886 4.50306 45.1521 4.50306C44.0157 4.50306 42.9258 4.95441 42.1221 5.75786L39.5079 8.43857C39.2 8.29788 38.8877 8.1671 38.5714 8.04643V4.28571C38.5714 3.14907 38.1199 2.05898 37.3162 1.25526C36.5124 0.451529 35.4224 0 34.2857 0H25.7143C24.5776 0 23.4876 0.451529 22.6838 1.25526C21.8801 2.05898 21.4286 3.14907 21.4286 4.28571L21.4714 8.02714C21.1576 8.1485 20.8474 8.27928 20.5414 8.41928L17.8779 5.75786C17.0742 4.95441 15.9843 4.50306 14.8479 4.50306C13.7114 4.50306 12.6215 4.95441 11.8179 5.75786L5.75786 11.8179C4.95441 12.6215 4.50306 13.7114 4.50306 14.8479C4.50306 15.9843 4.95441 17.0742 5.75786 17.8779L8.43429 20.5007C8.29071 20.8221 8.15357 21.1436 8.04857 21.4286H4.28571C3.14907 21.4286 2.05898 21.8801 1.25526 22.6838C0.451529 23.4876 0 24.5776 0 25.7143V34.2857C0 35.4224 0.451529 36.5124 1.25526 37.3162C2.05898 38.1199 3.14907 38.5714 4.28571 38.5714L8.025 38.5264C8.15357 38.8543 8.29071 39.1693 8.42143 39.4586L5.75786 42.1221C4.95441 42.9258 4.50306 44.0157 4.50306 45.1521C4.50306 46.2886 4.95441 47.3785 5.75786 48.1821L11.8179 54.2421C12.6215 55.0456 13.7114 55.4969 14.8479 55.4969C15.9843 55.4969 17.0742 55.0456 17.8779 54.2421L20.49 51.5636C20.8114 51.7071 21.1329 51.8421 21.4286 51.9536V55.7143C21.4286 56.8509 21.8801 57.941 22.6838 58.7447C23.4876 59.5485 24.5776 60 25.7143 60H34.2857C35.4224 60 36.5124 59.5485 37.3162 58.7447C38.1199 57.941 38.5714 56.8509 38.5714 55.7143L38.5286 51.9729C38.8607 51.8421 39.1886 51.7071 39.4586 51.5807L42.1221 54.2421C42.9258 55.0456 44.0157 55.4969 45.1521 55.4969C46.2886 55.4969 47.3785 55.0456 48.1821 54.2421L54.2421 48.1821C55.0456 47.3785 55.4969 46.2886 55.4969 45.1521C55.4969 44.0157 55.0456 42.9258 54.2421 42.1221L51.5657 39.4993C51.7093 39.1779 51.8464 38.8564 51.9514 38.5714H55.7143C56.8509 38.5714 57.941 38.1199 58.7447 37.3162C59.5485 36.5124 60 35.4224 60 34.2857V25.7143C60 24.5776 59.5485 23.4876 58.7447 22.6838C57.941 21.8801 56.8509 21.4286 55.7143 21.4286ZM55.7143 34.2857H51.9514C51.0989 34.2847 50.2655 34.5391 49.5589 35.0161C48.8523 35.4932 48.3049 36.171 47.9871 36.9621C47.88 37.2321 47.7729 37.5 47.6507 37.7593C47.3096 38.5469 47.2128 39.4187 47.3729 40.2619C47.533 41.1051 47.9426 41.8808 48.5486 42.4886L51.2143 45.1521L45.1521 51.2143L42.4907 48.5529C41.8821 47.9447 41.1044 47.5338 40.259 47.3736C39.4136 47.2135 38.5396 47.3115 37.7507 47.655C37.49 47.7725 37.2264 47.8832 36.96 47.9871C36.1704 48.3075 35.4943 48.856 35.0179 49.5625C34.5416 50.269 34.2867 51.1015 34.2857 51.9536V55.7143H25.7143V51.9536C25.7137 51.102 25.4594 50.2699 24.9838 49.5634C24.5083 48.857 23.833 48.3082 23.0443 47.9871C22.7741 47.8823 22.5069 47.7701 22.2429 47.6507C21.709 47.4144 21.1316 47.2925 20.5479 47.2929C19.4091 47.2934 18.317 47.7458 17.5114 48.5507L14.8479 51.2143L8.78571 45.1521L11.4514 42.4886C12.0544 41.882 12.4621 41.109 12.6221 40.2689C12.7821 39.4288 12.6871 38.56 12.3493 37.7743C12.2309 37.5105 12.1188 37.244 12.0129 36.975C11.6967 36.1818 11.1499 35.5016 10.4433 35.0222C9.73662 34.5428 8.90248 34.2863 8.04857 34.2857H4.28571V25.7143H8.04857C8.90113 25.7153 9.73445 25.4609 10.4411 24.9839C11.1477 24.5068 11.6951 23.829 12.0129 23.0379C12.12 22.7679 12.2271 22.5 12.3493 22.2407C12.6904 21.4531 12.7872 20.5813 12.6271 19.7381C12.467 18.8949 12.0574 18.1192 11.4514 17.5114L8.78571 14.8479L14.8479 8.78571L17.5114 11.4471C18.1188 12.0567 18.8961 12.4685 19.7415 12.6287C20.5869 12.789 21.461 12.6901 22.2493 12.345C22.5107 12.2271 22.7764 12.1157 23.0421 12.0107C23.831 11.6901 24.5064 11.1418 24.9823 10.4358C25.4583 9.72973 25.7131 8.89791 25.7143 8.04643V4.28571H34.2857V8.04643C34.2863 8.89803 34.5406 9.73014 35.0162 10.4366C35.4917 11.143 36.167 11.6918 36.9557 12.0129C37.2236 12.1179 37.4893 12.2271 37.7571 12.3493C38.5447 12.6929 39.4177 12.7909 40.2619 12.6303C41.1061 12.4697 41.8821 12.0581 42.4886 11.4493L45.1521 8.78571L51.2143 14.8479L48.5486 17.5114C47.9434 18.1188 47.5344 18.8938 47.3744 19.7361C47.2143 20.5784 47.3106 21.4494 47.6507 22.2364C47.7686 22.5 47.8821 22.7679 47.9871 23.0357C48.305 23.8269 48.8525 24.5049 49.559 24.9822C50.2655 25.4596 51.0987 25.7146 51.9514 25.7143H55.7143V34.2857Z" fill="url(#paint0_linear_248_60)"/>
<defs>
<linearGradient id="paint0_linear_248_60" x1="14.8821" y1="56.1836" x2="45.1179" y2="3.81643" gradientUnits="userSpaceOnUse">
<stop stop-color="#3A54FA"/>
<stop offset="1" stop-color="#7CD2FD"/>
</linearGradient>
</defs>
</svg>
