<svg width="30" height="30" viewBox="0 0 30 30" fill="none" xmlns="http://www.w3.org/2000/svg">
<path d="M28.1016 19.7716V9.20044C29.3062 8.20529 30 6.74542 30 5.19168C30 2.32827 27.675 0 24.8156 0C22.8422 0 21.075 1.09373 20.1891 2.8681H0.323438C0.140625 2.8634 0 3.00422 0 3.18729V6.13519C0 6.31357 0.140625 6.45908 0.323438 6.45908H0.951562V19.7762C0.951562 21.6961 2.5125 23.2593 4.42969 23.2593H7.65L5.86875 29.3522H1.96875C1.79531 29.3522 1.64531 29.4977 1.64531 29.6761C1.64531 29.8545 1.79062 30 1.96875 30H28.1016C28.275 30 28.425 29.8592 28.425 29.6761C28.425 29.5024 28.2797 29.3522 28.1016 29.3522H23.2875L21.4453 23.2546H24.6281C26.5453 23.2546 28.1016 21.6914 28.1016 19.7716ZM24.8156 5.44046H24.8016L24.7687 5.43577C24.7266 5.43577 24.6844 5.43577 24.6281 5.41699C23.9203 5.36536 23.3297 4.70818 23.3297 3.95713C23.3297 3.24832 23.8172 2.65217 24.4969 2.51134V2.07949C24.4969 1.9058 24.6375 1.75559 24.8156 1.75559C24.9891 1.75559 25.1391 1.90111 25.1391 2.07949V2.50665C25.8188 2.65686 26.3016 3.25771 26.3016 3.95713C26.3016 4.1355 26.1609 4.28102 25.9781 4.28102C25.8047 4.28102 25.6547 4.1402 25.6547 3.95713C25.6547 3.48302 25.2891 3.11219 24.8156 3.11219C24.3047 3.15444 23.9719 3.50649 23.9719 3.95713C23.9719 4.38898 24.3047 4.75043 24.7312 4.78798C24.7781 4.79268 24.7828 4.79268 24.8109 4.79268L24.8297 4.89125L24.8578 4.80207C25.6453 4.82084 26.2969 5.4874 26.2969 6.2854C26.2969 6.98952 25.8141 7.58567 25.1344 7.73119V8.22407C25.1344 8.40244 24.9891 8.54796 24.8109 8.54796C24.6328 8.54796 24.4922 8.40714 24.4922 8.22407V7.73119C23.8125 7.58567 23.325 6.98482 23.325 6.2854C23.325 6.10703 23.4656 5.96151 23.6484 5.96151C23.8219 5.96151 23.9672 6.10233 23.9672 6.2854C23.9672 6.75012 24.3422 7.13034 24.8109 7.13034C25.275 7.13034 25.65 6.75012 25.65 6.2854C25.65 5.82069 25.2797 5.44046 24.8156 5.44046ZM0.642187 5.8113V3.50649H19.9172C19.725 4.05101 19.6266 4.619 19.6266 5.18698C19.6266 5.37944 19.6406 5.58129 19.6734 5.8113H0.642187ZM9.02344 29.3475L9.98438 26.0006H19.0641L20.0578 29.3475H9.02344ZM10.1719 25.3528L10.7719 23.2546H18.2484L18.8719 25.3528H10.1719ZM4.425 22.6115C2.85937 22.6115 1.58906 21.3394 1.58906 19.7716V6.45439H19.7906C20.3719 8.76858 22.4297 10.3787 24.8156 10.3787C25.7437 10.3787 26.6531 10.1252 27.4594 9.64638V19.7716C27.4594 21.3394 26.1891 22.6115 24.6281 22.6115H4.425Z" fill="url(#paint0_linear_248_37)"/>
<path d="M21.8818 19.7903V21.3629C21.8818 21.5412 21.7412 21.6867 21.5584 21.6867H7.48652C7.3084 21.6867 7.16309 21.5459 7.16309 21.3629V7.83915C7.16309 7.66078 7.30371 7.51526 7.48652 7.51526H9.00527C9.1834 7.51526 9.32871 7.65608 9.32871 7.83915V19.4711H10.2475V10.8575C10.2475 10.7401 10.3131 10.6274 10.4162 10.5711C10.4631 10.543 10.5193 10.5336 10.5662 10.5336C10.6318 10.5336 10.6928 10.5523 10.7443 10.5899L12.099 11.5006C12.1928 11.5616 12.2396 11.6602 12.2396 11.7681V19.4711H12.849V12.8196C12.849 12.7116 12.91 12.6037 13.0037 12.5426C13.0506 12.5145 13.1115 12.4957 13.1678 12.4957C13.2193 12.4957 13.2709 12.5098 13.3131 12.5333L14.6725 13.2468C14.7803 13.3031 14.8412 13.411 14.8412 13.5331V19.4711H15.4506V15.0634C15.4506 14.9554 15.5021 14.8615 15.5818 14.8005C15.6381 14.763 15.699 14.7395 15.7693 14.7395C15.8068 14.7395 15.8396 14.7489 15.8725 14.7583L17.2271 15.2417C17.3537 15.2887 17.4428 15.4107 17.4428 15.5469V19.4758H18.0475V17.2227C18.0475 17.1241 18.0896 17.0349 18.1646 16.9739C18.2209 16.9269 18.2912 16.8988 18.3662 16.8988L18.4318 16.9035L19.7865 17.171C19.9318 17.1992 20.0443 17.3306 20.0443 17.4855V19.4758H21.5537C21.7412 19.4711 21.8818 19.6167 21.8818 19.7903Z" fill="url(#paint1_linear_248_37)"/>
<path d="M11.063 9.32247L19.1209 14.6925L18.4834 14.8756C18.3146 14.9225 18.2162 15.1009 18.263 15.2746C18.3052 15.4107 18.4318 15.5093 18.5724 15.5093C18.6005 15.5093 18.6334 15.5046 18.6615 15.4952L19.9646 15.1197L20.0396 15.0821C20.0818 15.054 20.1193 15.0258 20.1474 14.9742C20.1662 14.946 20.1802 14.9131 20.1896 14.8756L20.1943 14.824L20.1052 14.8052L20.199 14.7723L20.0537 13.3078C20.0396 13.1482 19.899 13.0214 19.7068 13.0214C19.6224 13.0308 19.5427 13.0731 19.4912 13.1388C19.4349 13.2045 19.4115 13.289 19.4209 13.3735L19.5005 14.1621L11.4193 8.78735C11.3677 8.74979 11.3068 8.73102 11.2412 8.73102C11.1334 8.73102 11.0349 8.78265 10.974 8.87653C10.9271 8.94695 10.9084 9.03144 10.9271 9.11593C10.9459 9.20512 10.9927 9.27553 11.063 9.32247Z" fill="#5FE4D4"/>
<defs>
<linearGradient id="paint0_linear_248_37" x1="15" y1="0" x2="15" y2="30" gradientUnits="userSpaceOnUse">
<stop offset="0.730769" stop-color="#7CD2FD"/>
<stop offset="1" stop-color="#3A54FA"/>
</linearGradient>
<linearGradient id="paint1_linear_248_37" x1="14.5225" y1="7.51526" x2="14.5225" y2="21.6867" gradientUnits="userSpaceOnUse">
<stop offset="0.658654" stop-color="#7CD2FD"/>
<stop offset="1" stop-color="#3A54FA"/>
</linearGradient>
</defs>
</svg>
