<svg width="60" height="60" viewBox="0 0 60 60" fill="none" xmlns="http://www.w3.org/2000/svg">
<g clip-path="url(#clip0_287_10)">
<path d="M58.125 54.375H57.1875V11.25C57.1875 10.2159 56.3466 9.375 55.3125 9.375H52.5C51.4659 9.375 50.625 10.2159 50.625 11.25V54.375H48.75V30.9375C48.75 30.4191 48.3309 30 47.8125 30C47.2941 30 46.875 30.4191 46.875 30.9375V54.375H44.0625V25.3125H46.875V28.125C46.875 28.6434 47.2941 29.0625 47.8125 29.0625C48.3309 29.0625 48.75 28.6434 48.75 28.125V25.3125C48.75 24.2784 47.9091 23.4375 46.875 23.4375H44.0625C43.0284 23.4375 42.1875 24.2784 42.1875 25.3125V54.375H40.3125V22.5C40.3125 21.4659 39.4716 20.625 38.4375 20.625H35.625C34.5909 20.625 33.75 21.4659 33.75 22.5V54.375H31.875V38.4375C31.875 37.4034 31.0341 36.5625 30 36.5625H27.1875C26.1534 36.5625 25.3125 37.4034 25.3125 38.4375V54.375H23.4375V36.5625C23.4375 35.5284 22.5966 34.6875 21.5625 34.6875H18.75C17.7159 34.6875 16.875 35.5284 16.875 36.5625V41.25C16.875 41.7684 17.2941 42.1875 17.8125 42.1875C18.3309 42.1875 18.75 41.7684 18.75 41.25V36.5625H21.5625V54.375H18.75V44.0625C18.75 43.5441 18.3309 43.125 17.8125 43.125C17.2941 43.125 16.875 43.5441 16.875 44.0625V54.375H15V49.6875C15 48.6534 14.1591 47.8125 13.125 47.8125H10.3125C9.27844 47.8125 8.4375 48.6534 8.4375 49.6875V54.375H5.625V1.875C5.625 0.840937 4.78406 0 3.75 0H1.875C0.840937 0 0 0.840937 0 1.875V58.125C0 59.1591 0.840937 60 1.875 60H58.125C59.1591 60 60 59.1591 60 58.125V56.25C60 55.2159 59.1591 54.375 58.125 54.375ZM52.5 11.25H55.3125V54.375H52.5V11.25ZM35.625 22.5H38.4375V54.375H35.625V22.5ZM27.1875 38.4375H30V54.375H27.1875V38.4375ZM10.3125 49.6875H13.125V54.375H10.3125V49.6875ZM58.125 58.125H1.875V1.875H3.75V55.3125C3.75 55.8309 4.16906 56.25 4.6875 56.25H10.3125H13.125H18.75H21.5625H27.1875H30H35.625H38.4375H44.0625H46.875H52.5H55.3125H58.125V58.125Z" fill="url(#paint0_linear_287_10)"/>
<path d="M35.2246 12.3572C34.9874 12.1912 34.6893 12.1443 34.4118 12.2287C34.1362 12.314 33.914 12.5212 33.8108 12.7912L26.7618 31.2947L19.3246 25.5103C19.0977 25.334 18.8043 25.2722 18.523 25.3397C18.2437 25.409 18.0121 25.6022 17.894 25.8656L9.45647 44.6156C9.24365 45.0881 9.45459 45.6431 9.92709 45.855C10.0527 45.9112 10.183 45.9375 10.3115 45.9375C10.6696 45.9375 11.0108 45.7322 11.1674 45.3843L19.1155 27.7218L26.6118 33.5522C26.8462 33.735 27.1527 33.7968 27.4405 33.7153C27.7274 33.6356 27.958 33.4237 28.064 33.1472L35.1355 14.5828L43.5252 20.4562C43.7483 20.6128 44.0287 20.6625 44.293 20.5968C44.5565 20.5293 44.7796 20.3503 44.9005 20.1075L53.3418 3.22497L54.4405 5.97372C54.5887 6.34028 54.9412 6.56247 55.3124 6.56247C55.4287 6.56247 55.5468 6.54184 55.6602 6.4959C56.1412 6.30372 56.3755 5.75809 56.1833 5.27715L54.3083 0.589653C54.1162 0.10684 53.5668 -0.124722 53.0896 0.0665279L48.4021 1.94153C47.9212 2.13372 47.6868 2.67934 47.879 3.16028C48.0712 3.64215 48.6215 3.87559 49.0977 3.6834L51.4958 2.72434L43.7099 18.2962L35.2246 12.3572Z" fill="url(#paint1_linear_287_10)"/>
</g>
<defs>
<linearGradient id="paint0_linear_287_10" x1="30" y1="0" x2="30" y2="60" gradientUnits="userSpaceOnUse">
<stop stop-color="#3A54FA"/>
<stop offset="1" stop-color="#7CD2FD"/>
</linearGradient>
<linearGradient id="paint1_linear_287_10" x1="5.81522" y1="-3.25879" x2="62.6765" y2="53.969" gradientUnits="userSpaceOnUse">
<stop stop-color="#7CD2FD"/>
<stop offset="1" stop-color="#0176EA"/>
</linearGradient>
<clipPath id="clip0_287_10">
<rect width="60" height="60" fill="white"/>
</clipPath>
</defs>
</svg>
