<svg width="30" height="30" viewBox="0 0 30 30" fill="none" xmlns="http://www.w3.org/2000/svg">
<path d="M27.732 5.39556C27.0148 4.63835 26.1613 4.03567 25.2203 3.62192C24.2793 3.20818 23.2692 2.99148 22.2478 2.98421C22.2231 2.98421 22.1989 2.98384 22.1742 2.98384C20.4444 2.98114 18.7635 3.58105 17.399 4.68804C17.1011 3.42443 16.548 2.36448 15.7482 1.53148C13.8382 -0.456774 10.3761 -0.309664 7.96801 0.839549C7.70939 0.655585 7.41447 0.534258 7.10491 0.484475C6.79536 0.434692 6.47902 0.457717 6.17913 0.551861C5.51268 0.750655 4.94871 1.26689 4.7757 1.83722C3.9902 4.41284 3.63358 7.10934 3.72125 9.81013C3.72388 9.88952 3.74752 9.96661 3.78956 10.0329C3.8316 10.0992 3.89042 10.1521 3.95951 10.1858C4.02861 10.2195 4.1053 10.2327 4.18113 10.2239C4.25696 10.215 4.32898 10.1846 4.38924 10.1359C4.43617 10.0979 4.52185 10.028 4.63043 9.93666C4.81229 11.3962 5.40201 12.768 6.32635 13.8816C6.6028 14.2165 6.90869 14.5238 7.24002 14.7995L7.08541 16.222C2.38368 17.0158 0 19.6108 0 23.9396V27.4763C0.000767407 28.1454 0.256433 28.7869 0.71091 29.26C1.16539 29.7331 1.78156 29.9993 2.42427 30H18.9382C19.5809 29.9993 20.1971 29.7331 20.6516 29.2599C21.106 28.7868 21.3617 28.1452 21.3624 27.4761V27.3825C21.652 27.5084 21.965 27.5654 22.2785 27.5492C22.592 27.533 22.8981 27.4441 23.1743 27.2891C23.4506 27.134 23.6901 26.9166 23.8754 26.6528C24.0606 26.389 24.1869 26.0854 24.245 25.7643C24.4694 25.7134 24.6704 25.5842 24.8146 25.3982C24.9588 25.2121 25.0376 24.9803 25.038 24.7412V20.9666C25.1717 20.5933 25.8949 18.6885 27.1411 17.4225C29.0381 15.4951 30 13.3786 30 11.1316C30.0026 10.0672 29.8037 9.01276 29.4145 8.02852C29.0253 7.04427 28.4536 6.14956 27.732 5.39556ZM5.56564 2.097C5.64256 1.84276 5.95653 1.51522 6.40694 1.38104C6.62041 1.31323 6.84712 1.30417 7.06496 1.35474C7.2828 1.40531 7.48433 1.51379 7.64991 1.66959C7.71176 1.72466 7.78782 1.75954 7.8686 1.76987C7.94938 1.7802 8.03129 1.76553 8.10411 1.72769C9.94903 0.769136 13.3586 0.263988 15.162 2.14129C15.9431 2.95446 16.455 4.02926 16.6864 5.33778C16.1849 5.8512 15.7513 6.43189 15.397 7.06452C15.3506 6.91353 15.3002 6.74172 15.2457 6.54601C14.8876 5.26102 13.9705 4.33352 12.9091 4.1832C10.6087 3.8575 9.22032 3.93839 6.97831 4.24277C6.90192 4.25314 6.82982 4.28548 6.77011 4.33616C6.7104 4.38684 6.66546 4.45385 6.64032 4.52966C6.37469 5.33051 5.62818 7.5178 5.36694 8.01149C5.27019 8.19439 4.91623 8.54917 4.53652 8.89273C4.54867 6.58644 4.89563 4.29531 5.56564 2.097ZM14.2698 16.2211L14.0745 14.7161C14.347 14.4805 14.601 14.2227 14.8344 13.9453C15.2205 15.0217 15.8179 16.0025 16.5883 16.8253C15.8347 16.5511 15.0587 16.3489 14.27 16.2211H14.2698ZM5.41244 9.23395C5.70404 8.95008 5.97292 8.65377 6.09292 8.42762C6.38783 7.87011 7.08618 5.81865 7.33925 5.06407C9.35932 4.79825 10.6783 4.73757 12.7977 5.03777C13.6935 5.16461 14.2478 6.05891 14.4503 6.78614C14.5724 7.24746 14.7203 7.70093 14.8935 8.14419C14.3138 9.67083 14.193 11.3447 14.547 12.9444C13.5174 14.39 12.089 15.2159 10.6068 15.2159C7.66766 15.2159 5.46333 12.079 5.41244 9.23395ZM10.6065 16.0781C11.5612 16.0723 12.4965 15.7959 13.3118 15.2786L13.4846 16.61C13.4037 17.2911 11.8074 17.9433 10.683 18.1932C9.53192 17.9271 7.9086 17.2653 7.87606 16.6176L8.01435 15.3459C8.8022 15.8214 9.69585 16.0739 10.6065 16.0783V16.0781ZM11.8545 25.9804L10.6812 27.5921L9.5079 25.9805L9.83334 18.8495C10.2627 18.9828 10.5757 19.0518 10.5967 19.0563C10.6246 19.0624 10.653 19.0655 10.6816 19.0655C10.7089 19.0655 10.7361 19.0627 10.7628 19.0571C10.7836 19.0527 11.0986 18.9864 11.5305 18.8542L11.8545 25.9804ZM18.9382 29.1376H2.42427C2.00116 29.1371 1.59552 28.9619 1.29634 28.6504C0.997161 28.3389 0.828875 27.9166 0.828405 27.4761V23.9394C0.828405 20.0682 2.8951 17.8233 7.14263 17.0859C7.36103 17.628 7.95429 18.1076 8.9147 18.5159C8.94886 18.5304 8.98295 18.5446 9.01695 18.5584L8.67328 26.0959C8.6687 26.1968 8.69828 26.2963 8.75689 26.3769L10.3511 28.5665C10.3897 28.6196 10.4396 28.6626 10.4969 28.6923C10.5542 28.7219 10.6173 28.7373 10.6812 28.7373C10.7452 28.7373 10.8083 28.7219 10.8655 28.6923C10.9228 28.6626 10.9727 28.6196 11.0113 28.5665L12.6055 26.3769C12.6641 26.2963 12.6937 26.1969 12.6891 26.0959L12.3463 18.5648C12.3718 18.5545 12.3972 18.5439 12.4227 18.5331C13.3838 18.1271 13.9825 17.6414 14.2109 17.0847C15.9332 17.3835 17.3135 17.9373 18.3205 18.7331C18.7453 19.4223 19.0781 20.1683 19.3099 20.9508V24.741C19.3103 24.9801 19.3891 25.2119 19.5333 25.3979C19.6775 25.584 19.8785 25.7132 20.1028 25.7641C20.1673 26.1194 20.3154 26.4526 20.5339 26.7337V27.4759C20.5334 27.9164 20.3652 28.3387 20.0661 28.6502C19.7669 28.9618 19.3613 29.137 18.9382 29.1376ZM24.2097 24.7412C24.2097 24.7902 24.191 24.8372 24.1577 24.8719C24.1244 24.9066 24.0792 24.926 24.0321 24.926H20.3159C20.2688 24.926 20.2236 24.9066 20.1903 24.8719C20.157 24.8372 20.1383 24.7902 20.1383 24.7412V21.3216H24.2097V24.7412ZM22.1742 26.6894C21.9074 26.6891 21.6475 26.6021 21.4305 26.4406C21.2136 26.2791 21.0504 26.0511 20.9638 25.7885H23.3847C23.2981 26.0512 23.1349 26.2792 22.9179 26.4408C22.7008 26.6023 22.4408 26.6893 22.174 26.6896L22.1742 26.6894ZM26.5628 16.8051C25.3389 18.0485 24.5983 19.7776 24.3379 20.4592H20.0296C19.7977 19.7335 19.1214 17.9467 17.792 16.8085C16.112 15.37 15.1589 13.2781 15.1766 11.0692C15.199 9.14997 15.9453 7.31686 17.2545 5.96553C18.5638 4.6142 20.3309 3.85302 22.1744 3.84629C22.1962 3.84629 22.2183 3.84629 22.2401 3.8466C26.0622 3.88344 29.1717 7.15126 29.1717 11.1316C29.1717 13.1375 28.2939 15.0464 26.5626 16.8053L26.5628 16.8051ZM27.121 9.7091C26.9201 9.59819 26.7053 9.51689 26.4828 9.46755C26.4295 9.31184 26.3684 9.15913 26.2999 9.01002C26.42 8.8172 26.5157 8.60902 26.5846 8.39066C26.6305 8.24334 26.6362 8.08565 26.6011 7.93516C26.5659 7.78466 26.4914 7.64728 26.3856 7.53831L25.5572 6.67587C25.454 6.56784 25.3246 6.4911 25.1827 6.45385C25.0408 6.4166 24.8918 6.42027 24.7517 6.46444C24.5343 6.53393 24.3271 6.63461 24.1363 6.76359C23.9929 6.69262 23.846 6.62946 23.6963 6.57434C23.6503 6.34963 23.5765 6.13206 23.4769 5.92701C23.4093 5.78906 23.3062 5.67337 23.1791 5.59283C23.052 5.51229 22.9059 5.47006 22.7572 5.47084H21.5855C21.4391 5.47042 21.2954 5.51148 21.1697 5.58961C21.044 5.66775 20.9411 5.78001 20.872 5.91438C20.7655 6.12362 20.6874 6.34727 20.64 6.5789C20.4905 6.63443 20.3438 6.69799 20.2005 6.76932C20.0153 6.64424 19.8153 6.5446 19.6055 6.47288C19.464 6.42521 19.3126 6.41936 19.1681 6.45597C19.0236 6.49258 18.8917 6.57022 18.787 6.68024L17.9586 7.54269C17.8549 7.65014 17.7812 7.78497 17.7454 7.93271C17.7096 8.08045 17.7131 8.23554 17.7556 8.38136C17.8223 8.60776 17.9191 8.82339 18.043 9.02204C17.9748 9.17135 17.9141 9.32427 17.8612 9.48018C17.6454 9.52807 17.4364 9.60481 17.2395 9.70848C17.107 9.7789 16.9958 9.88625 16.9185 10.0186C16.8411 10.1509 16.8005 10.303 16.8013 10.4579V11.6772C16.8009 11.8296 16.8403 11.9793 16.9154 12.1101C16.9904 12.241 17.0983 12.3481 17.2273 12.42C17.4283 12.531 17.6431 12.6123 17.8656 12.6616C17.9189 12.8173 17.9799 12.97 18.0485 13.1191C17.9284 13.3119 17.8327 13.5201 17.7638 13.7385C17.7179 13.8858 17.7122 14.0435 17.7473 14.194C17.7825 14.3445 17.857 14.4818 17.9627 14.5908L18.7911 15.4533C18.8944 15.5613 19.0239 15.638 19.1658 15.6753C19.3077 15.7125 19.4567 15.7089 19.5967 15.6647C19.8142 15.5952 20.0213 15.4945 20.2121 15.3655C20.3556 15.4365 20.5025 15.4997 20.6522 15.5548C20.6982 15.7795 20.7719 15.9971 20.8715 16.2021C20.9392 16.34 21.0424 16.4556 21.1694 16.5361C21.2965 16.6166 21.4426 16.6588 21.5913 16.658H22.7625C22.9089 16.6584 23.0526 16.6173 23.1783 16.5392C23.304 16.4611 23.4069 16.3488 23.4759 16.2144C23.5825 16.0052 23.6606 15.7816 23.7079 15.5499C23.8575 15.4944 24.0042 15.4309 24.1475 15.3595C24.3327 15.4846 24.5327 15.5842 24.7424 15.6559C24.8839 15.7037 25.0354 15.7096 25.1799 15.673C25.3245 15.6364 25.4564 15.5588 25.5611 15.4488L26.3895 14.5863C26.4932 14.4789 26.567 14.3441 26.6027 14.1964C26.6385 14.0486 26.635 13.8936 26.5926 13.7478C26.5258 13.5214 26.4291 13.3057 26.3052 13.1071C26.3734 12.9578 26.434 12.8048 26.4869 12.6489C26.7028 12.6011 26.9118 12.5243 27.1087 12.4206C27.2412 12.3502 27.3523 12.2429 27.4297 12.1105C27.5071 11.9782 27.5477 11.8261 27.5469 11.6712V10.4522C27.5473 10.2997 27.5078 10.1501 27.4328 10.0192C27.3577 9.88837 27.2499 9.78123 27.1209 9.70928L27.121 9.7091ZM26.7187 11.6597C26.587 11.7273 26.4475 11.7771 26.3037 11.8079C26.1674 11.8393 26.041 11.9064 25.9366 12.0028C25.8322 12.0992 25.7531 12.2218 25.7069 12.359C25.6625 12.4902 25.6114 12.6188 25.5537 12.7444C25.4942 12.8747 25.4677 13.0188 25.4766 13.1629C25.4856 13.3069 25.5297 13.4462 25.6049 13.5675C25.6868 13.6968 25.7512 13.8373 25.7961 13.9849L24.9835 14.8309C24.8444 14.7818 24.7118 14.7143 24.5892 14.6301C24.4714 14.5519 24.3363 14.5064 24.1968 14.4977C24.0574 14.4891 23.9181 14.5177 23.7922 14.5808C23.6717 14.6411 23.5483 14.6945 23.4223 14.741C23.2918 14.7894 23.1754 14.8717 23.084 14.9801C22.9926 15.0885 22.9292 15.2194 22.9 15.3604C22.8701 15.5121 22.8202 15.6588 22.7516 15.7961H21.6024C21.5378 15.6589 21.4901 15.5138 21.4604 15.3642C21.4303 15.2223 21.3658 15.0907 21.2732 14.982C21.1805 14.8732 21.0628 14.7909 20.931 14.7428C20.805 14.6966 20.6814 14.6434 20.5608 14.5834C20.4356 14.5214 20.2973 14.4937 20.1589 14.503C20.0205 14.5123 19.8867 14.5582 19.7702 14.6365C19.646 14.7218 19.5111 14.7888 19.3692 14.8356L18.5563 13.9896C18.6034 13.8448 18.6682 13.7069 18.749 13.5792C18.8241 13.4566 18.8679 13.316 18.8762 13.1708C18.8845 13.0255 18.857 12.8805 18.7963 12.7495C18.7385 12.624 18.6871 12.4954 18.6425 12.3642C18.596 12.2284 18.5169 12.1072 18.4128 12.012C18.3087 11.9169 18.183 11.851 18.0476 11.8206C17.9019 11.7895 17.761 11.7375 17.629 11.6662V10.4698C17.7606 10.4022 17.9 10.3523 18.0438 10.3215C18.1801 10.2901 18.3065 10.223 18.4109 10.1266C18.5154 10.0302 18.5945 9.90756 18.6407 9.7704C18.6851 9.63916 18.7362 9.51051 18.7938 9.385C18.8534 9.25463 18.8799 9.11058 18.871 8.96653C18.862 8.82247 18.8179 8.68318 18.7428 8.56186C18.6608 8.4326 18.5964 8.29211 18.5515 8.14443L19.3641 7.29849C19.5033 7.3476 19.6358 7.41505 19.7584 7.4992C19.8762 7.57742 20.0113 7.62301 20.1507 7.63164C20.2902 7.64026 20.4295 7.61164 20.5554 7.54848C20.6758 7.4882 20.7993 7.43473 20.9253 7.38831C21.0558 7.33985 21.1723 7.25753 21.2637 7.14914C21.3551 7.04075 21.4184 6.90987 21.4476 6.76889C21.4774 6.61716 21.5273 6.47047 21.5959 6.33304H22.7456C22.8103 6.47023 22.8582 6.61536 22.888 6.76501C22.9181 6.90692 22.9826 7.03848 23.0752 7.14722C23.1679 7.25596 23.2856 7.33828 23.4174 7.3864C23.5434 7.43263 23.667 7.48585 23.7876 7.54583C23.9128 7.60781 24.0512 7.63547 24.1895 7.62617C24.3279 7.61688 24.4617 7.57095 24.5782 7.49273C24.7024 7.40736 24.8373 7.34035 24.9792 7.29363L25.7917 8.13957C25.7446 8.28437 25.6798 8.42229 25.599 8.54997C25.5238 8.6726 25.48 8.81321 25.4718 8.95843C25.4635 9.10365 25.491 9.24867 25.5517 9.37971C25.6096 9.50516 25.6609 9.63377 25.7055 9.76497C25.7521 9.90081 25.8311 10.022 25.9352 10.1172C26.0393 10.2123 26.165 10.2782 26.3004 10.3087C26.4462 10.3396 26.587 10.3914 26.7191 10.4627L26.7187 11.6597ZM22.1743 8.34335C21.6573 8.34335 21.1519 8.50295 20.7221 8.80197C20.2922 9.10099 19.9572 9.526 19.7594 10.0233C19.5615 10.5205 19.5098 11.0677 19.6106 11.5955C19.7115 12.1234 19.9605 12.6083 20.326 12.9889C20.6916 13.3694 21.1573 13.6286 21.6644 13.7336C22.1714 13.8386 22.697 13.7847 23.1746 13.5787C23.6522 13.3728 24.0604 13.024 24.3476 12.5764C24.6348 12.1289 24.7881 11.6028 24.7881 11.0646C24.7873 10.3431 24.5116 9.6514 24.0215 9.14128C23.5314 8.63116 22.867 8.34427 22.174 8.34353L22.1743 8.34335ZM22.1743 12.9234C21.8211 12.9234 21.4759 12.8144 21.1823 12.6101C20.8887 12.4059 20.6599 12.1156 20.5247 11.7759C20.3896 11.4362 20.3542 11.0625 20.4231 10.7019C20.492 10.3413 20.6621 10.0101 20.9118 9.75017C21.1615 9.49021 21.4796 9.31318 21.8259 9.24145C22.1723 9.16973 22.5313 9.20654 22.8575 9.34723C23.1838 9.48792 23.4626 9.72617 23.6588 10.0319C23.855 10.3375 23.9597 10.6969 23.9597 11.0646C23.9592 11.5575 23.7709 12.03 23.4361 12.3785C23.1013 12.727 22.6474 12.923 22.174 12.9235L22.1743 12.9234Z" fill="url(#paint0_linear_248_5)"/>
<defs>
<linearGradient id="paint0_linear_248_5" x1="25.2272" y1="2.78764" x2="-0.749907" y2="27.7393" gradientUnits="userSpaceOnUse">
<stop stop-color="#3A54FA"/>
<stop offset="1" stop-color="#7CD2FD"/>
</linearGradient>
</defs>
</svg>
