<svg width="80" height="70" viewBox="0 0 80 70" fill="none" xmlns="http://www.w3.org/2000/svg">
<path d="M48.8232 19.9573H55.6967V38.9498H48.8232V19.9573ZM37.3674 14.8926H44.2409V25.0219H37.3674V14.8926Z" fill="url(#paint0_linear_288_64)"/>
<path d="M25.9116 5.72791H32.7851V19.6795H25.9116V5.72791ZM14.4558 19.6795H21.3293V41.2409H14.4558V19.6795Z" fill="url(#paint1_linear_288_64)"/>
<path d="M3 38.9498H9.87349V49.2601H3V38.9498Z" fill="url(#paint2_linear_288_64)"/>
<path d="M5.85135 44.0629V39.0771H3V49.26H9.87349V46.6086H8.14252C7.53486 46.6086 6.9521 46.3404 6.52242 45.863C6.09274 45.3856 5.85135 44.7381 5.85135 44.0629ZM40.2188 19.8784V14.8926H37.3675V25.0755H44.2409V22.4241H42.51C41.9023 22.4241 41.3195 22.1559 40.8899 21.6785C40.4602 21.2011 40.2188 20.5536 40.2188 19.8784Z" fill="url(#paint3_linear_288_64)"/>
<path d="M28.763 14.5009V5.72791H25.9116V19.6795H32.7851V17.0375H31.0541C30.4465 17.0375 29.8637 16.7703 29.434 16.2946C29.0044 15.8189 28.763 15.1737 28.763 14.5009ZM17.3072 36.0624V19.6795H14.4558V41.2409H21.3293V38.599H19.5983C18.9907 38.599 18.4079 38.3318 17.9782 37.8561C17.5486 37.3803 17.3072 36.7351 17.3072 36.0624Z" fill="url(#paint4_linear_288_64)"/>
<path d="M51.6746 33.6487V19.4749H48.8232V38.9497H55.6967V36.2453H53.9658C53.3581 36.2453 52.7753 35.9718 52.3457 35.4848C51.916 34.9978 51.6746 34.3374 51.6746 33.6487Z" fill="url(#paint5_linear_288_64)"/>
<path d="M5.86405 54.9879C5.71214 54.9879 5.56645 54.9221 5.45903 54.8049C5.35161 54.6877 5.29126 54.5288 5.29126 54.3631V48.7393C5.29126 48.5736 5.35161 48.4146 5.45903 48.2974C5.56645 48.1803 5.71214 48.1144 5.86405 48.1144C6.01596 48.1144 6.16166 48.1803 6.26908 48.2974C6.37649 48.4146 6.43684 48.5736 6.43684 48.7393V54.3631C6.43684 54.5288 6.37649 54.6877 6.26908 54.8049C6.16166 54.9221 6.01596 54.9879 5.86405 54.9879ZM5.86405 39.3663C5.71214 39.3663 5.56645 39.3005 5.45903 39.1833C5.35161 39.0661 5.29126 38.9072 5.29126 38.7415V33.1177C5.29126 32.952 5.35161 32.7931 5.45903 32.6759C5.56645 32.5587 5.71214 32.4929 5.86405 32.4929C6.01596 32.4929 6.16166 32.5587 6.26908 32.6759C6.37649 32.7931 6.43684 32.952 6.43684 33.1177V38.7415C6.43684 38.9072 6.37649 39.0661 6.26908 39.1833C6.16166 39.3005 6.01596 39.3663 5.86405 39.3663ZM17.3199 20.6205C17.168 20.6205 17.0223 20.5546 16.9148 20.4375C16.8074 20.3203 16.7471 20.1613 16.7471 19.9956V14.3718C16.7471 14.2061 16.8074 14.0472 16.9148 13.93C17.0223 13.8128 17.168 13.747 17.3199 13.747C17.4718 13.747 17.6175 13.8128 17.7249 13.93C17.8323 14.0472 17.8927 14.2061 17.8927 14.3718V19.9956C17.8927 20.1613 17.8323 20.3203 17.7249 20.4375C17.6175 20.5546 17.4718 20.6205 17.3199 20.6205ZM17.3199 47.4896C17.168 47.4896 17.0223 47.4237 16.9148 47.3065C16.8074 47.1894 16.7471 47.0304 16.7471 46.8647V41.2409C16.7471 41.0752 16.8074 40.9163 16.9148 40.7991C17.0223 40.6819 17.168 40.6161 17.3199 40.6161C17.4718 40.6161 17.6175 40.6819 17.7249 40.7991C17.8323 40.9163 17.8927 41.0752 17.8927 41.2409V46.8647C17.8927 47.0304 17.8323 47.1894 17.7249 47.3065C17.6175 47.4237 17.4718 47.4896 17.3199 47.4896ZM51.6873 20.6205C51.5354 20.6205 51.3897 20.5546 51.2823 20.4375C51.1749 20.3203 51.1145 20.1613 51.1145 19.9956V14.3718C51.1145 14.2061 51.1749 14.0472 51.2823 13.93C51.3897 13.8128 51.5354 13.747 51.6873 13.747C51.8392 13.747 51.9849 13.8128 52.0923 13.93C52.1998 14.0472 52.2601 14.2061 52.2601 14.3718V19.9956C52.2601 20.1613 52.1998 20.3203 52.0923 20.4375C51.9849 20.5546 51.8392 20.6205 51.6873 20.6205ZM51.6873 44.9901C51.5354 44.9901 51.3897 44.9243 51.2823 44.8071C51.1749 44.6899 51.1145 44.531 51.1145 44.3652V38.7415C51.1145 38.5758 51.1749 38.4168 51.2823 38.2996C51.3897 38.1825 51.5354 38.1166 51.6873 38.1166C51.8392 38.1166 51.9849 38.1825 52.0923 38.2996C52.1998 38.4168 52.2601 38.5758 52.2601 38.7415V44.3652C52.2601 44.531 52.1998 44.6899 52.0923 44.8071C51.9849 44.9243 51.8392 44.9901 51.6873 44.9901ZM40.2315 15.6216C40.0796 15.6216 39.9339 15.5557 39.8265 15.4385C39.7191 15.3214 39.6587 15.1624 39.6587 14.9967V9.37294C39.6587 9.20722 39.7191 9.04828 39.8265 8.9311C39.9339 8.81391 40.0796 8.74808 40.2315 8.74808C40.3834 8.74808 40.5291 8.81391 40.6365 8.9311C40.7439 9.04828 40.8043 9.20722 40.8043 9.37294V14.9967C40.8043 15.1624 40.7439 15.3214 40.6365 15.4385C40.5291 15.5557 40.3834 15.6216 40.2315 15.6216ZM40.2315 31.2431C40.0796 31.2431 39.9339 31.1773 39.8265 31.0601C39.7191 30.9429 39.6587 30.784 39.6587 30.6183V24.9945C39.6587 24.8288 39.7191 24.6698 39.8265 24.5527C39.9339 24.4355 40.0796 24.3696 40.2315 24.3696C40.3834 24.3696 40.5291 24.4355 40.6365 24.5527C40.7439 24.6698 40.8043 24.8288 40.8043 24.9945V30.6183C40.8043 30.784 40.7439 30.9429 40.6365 31.0601C40.5291 31.1773 40.3834 31.2431 40.2315 31.2431ZM28.7757 6.87349C28.6238 6.87349 28.4781 6.80766 28.3707 6.69047C28.2632 6.57329 28.2029 6.41435 28.2029 6.24863V0.624863C28.2029 0.459139 28.2632 0.300202 28.3707 0.183018C28.4781 0.0658331 28.6238 0 28.7757 0C28.9276 0 29.0733 0.0658331 29.1807 0.183018C29.2881 0.300202 29.3485 0.459139 29.3485 0.624863V6.24863C29.3485 6.41435 29.2881 6.57329 29.1807 6.69047C29.0733 6.80766 28.9276 6.87349 28.7757 6.87349ZM28.7757 26.2442C28.6238 26.2442 28.4781 26.1784 28.3707 26.0612C28.2632 25.944 28.2029 25.7851 28.2029 25.6194V19.9956C28.2029 19.8299 28.2632 19.6709 28.3707 19.5538C28.4781 19.4366 28.6238 19.3707 28.7757 19.3707C28.9276 19.3707 29.0733 19.4366 29.1807 19.5538C29.2881 19.6709 29.3485 19.8299 29.3485 19.9956V25.6194C29.3485 25.7851 29.2881 25.944 29.1807 26.0612C29.0733 26.1784 28.9276 26.2442 28.7757 26.2442Z" fill="url(#paint6_linear_288_64)"/>
<path d="M3 38.9498H9.87349V49.2601H3V38.9498Z" fill="url(#paint7_linear_288_64)"/>
<path d="M5.85135 44.0629V39.0771H3V49.26H9.87349V46.6086H8.14252C7.53486 46.6086 6.9521 46.3404 6.52242 45.863C6.09274 45.3856 5.85135 44.7381 5.85135 44.0629ZM40.2188 19.8784V14.8926H37.3675V25.0755H44.2409V22.4241H42.51C41.9023 22.4241 41.3195 22.1559 40.8899 21.6785C40.4602 21.2011 40.2188 20.5536 40.2188 19.8784Z" fill="url(#paint8_linear_288_64)"/>
<path d="M5.86405 54.9879C5.71214 54.9879 5.56645 54.9221 5.45903 54.8049C5.35161 54.6877 5.29126 54.5288 5.29126 54.3631V48.7393C5.29126 48.5736 5.35161 48.4146 5.45903 48.2974C5.56645 48.1803 5.71214 48.1144 5.86405 48.1144C6.01596 48.1144 6.16166 48.1803 6.26908 48.2974C6.37649 48.4146 6.43684 48.5736 6.43684 48.7393V54.3631C6.43684 54.5288 6.37649 54.6877 6.26908 54.8049C6.16166 54.9221 6.01596 54.9879 5.86405 54.9879ZM5.86405 39.3663C5.71214 39.3663 5.56645 39.3005 5.45903 39.1833C5.35161 39.0661 5.29126 38.9072 5.29126 38.7415V33.1177C5.29126 32.952 5.35161 32.7931 5.45903 32.6759C5.56645 32.5587 5.71214 32.4929 5.86405 32.4929C6.01596 32.4929 6.16166 32.5587 6.26908 32.6759C6.37649 32.7931 6.43684 32.952 6.43684 33.1177V38.7415C6.43684 38.9072 6.37649 39.0661 6.26908 39.1833C6.16166 39.3005 6.01596 39.3663 5.86405 39.3663ZM17.3199 20.6205C17.168 20.6205 17.0223 20.5546 16.9148 20.4375C16.8074 20.3203 16.7471 20.1613 16.7471 19.9956V14.3718C16.7471 14.2061 16.8074 14.0472 16.9148 13.93C17.0223 13.8128 17.168 13.747 17.3199 13.747C17.4718 13.747 17.6175 13.8128 17.7249 13.93C17.8323 14.0472 17.8927 14.2061 17.8927 14.3718V19.9956C17.8927 20.1613 17.8323 20.3203 17.7249 20.4375C17.6175 20.5546 17.4718 20.6205 17.3199 20.6205ZM17.3199 47.4896C17.168 47.4896 17.0223 47.4237 16.9148 47.3065C16.8074 47.1894 16.7471 47.0304 16.7471 46.8647V41.2409C16.7471 41.0752 16.8074 40.9163 16.9148 40.7991C17.0223 40.6819 17.168 40.6161 17.3199 40.6161C17.4718 40.6161 17.6175 40.6819 17.7249 40.7991C17.8323 40.9163 17.8927 41.0752 17.8927 41.2409V46.8647C17.8927 47.0304 17.8323 47.1894 17.7249 47.3065C17.6175 47.4237 17.4718 47.4896 17.3199 47.4896ZM51.6873 20.6205C51.5354 20.6205 51.3897 20.5546 51.2823 20.4375C51.1749 20.3203 51.1145 20.1613 51.1145 19.9956V14.3718C51.1145 14.2061 51.1749 14.0472 51.2823 13.93C51.3897 13.8128 51.5354 13.747 51.6873 13.747C51.8392 13.747 51.9849 13.8128 52.0923 13.93C52.1998 14.0472 52.2601 14.2061 52.2601 14.3718V19.9956C52.2601 20.1613 52.1998 20.3203 52.0923 20.4375C51.9849 20.5546 51.8392 20.6205 51.6873 20.6205ZM51.6873 44.9901C51.5354 44.9901 51.3897 44.9243 51.2823 44.8071C51.1749 44.6899 51.1145 44.531 51.1145 44.3652V38.7415C51.1145 38.5758 51.1749 38.4168 51.2823 38.2996C51.3897 38.1825 51.5354 38.1166 51.6873 38.1166C51.8392 38.1166 51.9849 38.1825 52.0923 38.2996C52.1998 38.4168 52.2601 38.5758 52.2601 38.7415V44.3652C52.2601 44.531 52.1998 44.6899 52.0923 44.8071C51.9849 44.9243 51.8392 44.9901 51.6873 44.9901ZM40.2315 15.6216C40.0796 15.6216 39.9339 15.5557 39.8265 15.4385C39.7191 15.3214 39.6587 15.1624 39.6587 14.9967V9.37294C39.6587 9.20722 39.7191 9.04828 39.8265 8.9311C39.9339 8.81391 40.0796 8.74808 40.2315 8.74808C40.3834 8.74808 40.5291 8.81391 40.6365 8.9311C40.7439 9.04828 40.8043 9.20722 40.8043 9.37294V14.9967C40.8043 15.1624 40.7439 15.3214 40.6365 15.4385C40.5291 15.5557 40.3834 15.6216 40.2315 15.6216ZM40.2315 31.2431C40.0796 31.2431 39.9339 31.1773 39.8265 31.0601C39.7191 30.9429 39.6587 30.784 39.6587 30.6183V24.9945C39.6587 24.8288 39.7191 24.6698 39.8265 24.5527C39.9339 24.4355 40.0796 24.3696 40.2315 24.3696C40.3834 24.3696 40.5291 24.4355 40.6365 24.5527C40.7439 24.6698 40.8043 24.8288 40.8043 24.9945V30.6183C40.8043 30.784 40.7439 30.9429 40.6365 31.0601C40.5291 31.1773 40.3834 31.2431 40.2315 31.2431ZM28.7757 6.87349C28.6238 6.87349 28.4781 6.80766 28.3707 6.69047C28.2632 6.57329 28.2029 6.41435 28.2029 6.24863V0.624863C28.2029 0.459139 28.2632 0.300202 28.3707 0.183018C28.4781 0.0658331 28.6238 0 28.7757 0C28.9276 0 29.0733 0.0658331 29.1807 0.183018C29.2881 0.300202 29.3485 0.459139 29.3485 0.624863V6.24863C29.3485 6.41435 29.2881 6.57329 29.1807 6.69047C29.0733 6.80766 28.9276 6.87349 28.7757 6.87349ZM28.7757 26.2442C28.6238 26.2442 28.4781 26.1784 28.3707 26.0612C28.2632 25.944 28.2029 25.7851 28.2029 25.6194V19.9956C28.2029 19.8299 28.2632 19.6709 28.3707 19.5538C28.4781 19.4366 28.6238 19.3707 28.7757 19.3707C28.9276 19.3707 29.0733 19.4366 29.1807 19.5538C29.2881 19.6709 29.3485 19.8299 29.3485 19.9956V25.6194C29.3485 25.7851 29.2881 25.944 29.1807 26.0612C29.0733 26.1784 28.9276 26.2442 28.7757 26.2442Z" fill="url(#paint9_linear_288_64)"/>
<path d="M48.8232 19.9573H55.6967V38.9498H48.8232V19.9573ZM37.3674 14.8926H44.2409V25.0219H37.3674V14.8926Z" fill="url(#paint10_linear_288_64)"/>
<path d="M25.9116 5.72791H32.7851V19.6795H25.9116V5.72791ZM14.4558 19.6795H21.3293V41.2409H14.4558V19.6795Z" fill="url(#paint11_linear_288_64)"/>
<path d="M5.85135 44.0629V39.0771H3V49.26H9.87349V46.6086H8.14252C7.53486 46.6086 6.9521 46.3404 6.52242 45.863C6.09274 45.3856 5.85135 44.7381 5.85135 44.0629ZM40.2188 19.8784V14.8926H37.3675V25.0755H44.2409V22.4241H42.51C41.9023 22.4241 41.3195 22.1559 40.8899 21.6785C40.4602 21.2011 40.2188 20.5536 40.2188 19.8784Z" fill="url(#paint12_linear_288_64)"/>
<path d="M28.763 14.5009V5.72791H25.9116V19.6795H32.7851V17.0375H31.0541C30.4465 17.0375 29.8637 16.7703 29.434 16.2946C29.0044 15.8189 28.763 15.1737 28.763 14.5009ZM17.3072 36.0624V19.6795H14.4558V41.2409H21.3293V38.599H19.5983C18.9907 38.599 18.4079 38.3318 17.9782 37.8561C17.5486 37.3803 17.3072 36.7351 17.3072 36.0624Z" fill="url(#paint13_linear_288_64)"/>
<path d="M51.6746 33.6487V19.4749H48.8232V38.9497H55.6967V36.2453H53.9658C53.3581 36.2453 52.7753 35.9718 52.3457 35.4848C51.916 34.9978 51.6746 34.3374 51.6746 33.6487Z" fill="url(#paint14_linear_288_64)"/>
<path d="M5.86405 54.9879C5.71214 54.9879 5.56645 54.9221 5.45903 54.8049C5.35161 54.6877 5.29126 54.5288 5.29126 54.3631V48.7393C5.29126 48.5736 5.35161 48.4146 5.45903 48.2974C5.56645 48.1803 5.71214 48.1144 5.86405 48.1144C6.01596 48.1144 6.16166 48.1803 6.26908 48.2974C6.37649 48.4146 6.43684 48.5736 6.43684 48.7393V54.3631C6.43684 54.5288 6.37649 54.6877 6.26908 54.8049C6.16166 54.9221 6.01596 54.9879 5.86405 54.9879ZM5.86405 39.3663C5.71214 39.3663 5.56645 39.3005 5.45903 39.1833C5.35161 39.0661 5.29126 38.9072 5.29126 38.7415V33.1177C5.29126 32.952 5.35161 32.7931 5.45903 32.6759C5.56645 32.5587 5.71214 32.4929 5.86405 32.4929C6.01596 32.4929 6.16166 32.5587 6.26908 32.6759C6.37649 32.7931 6.43684 32.952 6.43684 33.1177V38.7415C6.43684 38.9072 6.37649 39.0661 6.26908 39.1833C6.16166 39.3005 6.01596 39.3663 5.86405 39.3663ZM17.3199 20.6205C17.168 20.6205 17.0223 20.5546 16.9148 20.4375C16.8074 20.3203 16.7471 20.1613 16.7471 19.9956V14.3718C16.7471 14.2061 16.8074 14.0472 16.9148 13.93C17.0223 13.8128 17.168 13.747 17.3199 13.747C17.4718 13.747 17.6175 13.8128 17.7249 13.93C17.8323 14.0472 17.8927 14.2061 17.8927 14.3718V19.9956C17.8927 20.1613 17.8323 20.3203 17.7249 20.4375C17.6175 20.5546 17.4718 20.6205 17.3199 20.6205ZM17.3199 47.4896C17.168 47.4896 17.0223 47.4237 16.9148 47.3065C16.8074 47.1894 16.7471 47.0304 16.7471 46.8647V41.2409C16.7471 41.0752 16.8074 40.9163 16.9148 40.7991C17.0223 40.6819 17.168 40.6161 17.3199 40.6161C17.4718 40.6161 17.6175 40.6819 17.7249 40.7991C17.8323 40.9163 17.8927 41.0752 17.8927 41.2409V46.8647C17.8927 47.0304 17.8323 47.1894 17.7249 47.3065C17.6175 47.4237 17.4718 47.4896 17.3199 47.4896ZM51.6873 20.6205C51.5354 20.6205 51.3897 20.5546 51.2823 20.4375C51.1749 20.3203 51.1145 20.1613 51.1145 19.9956V14.3718C51.1145 14.2061 51.1749 14.0472 51.2823 13.93C51.3897 13.8128 51.5354 13.747 51.6873 13.747C51.8392 13.747 51.9849 13.8128 52.0923 13.93C52.1998 14.0472 52.2601 14.2061 52.2601 14.3718V19.9956C52.2601 20.1613 52.1998 20.3203 52.0923 20.4375C51.9849 20.5546 51.8392 20.6205 51.6873 20.6205ZM51.6873 44.9901C51.5354 44.9901 51.3897 44.9243 51.2823 44.8071C51.1749 44.6899 51.1145 44.531 51.1145 44.3652V38.7415C51.1145 38.5758 51.1749 38.4168 51.2823 38.2996C51.3897 38.1825 51.5354 38.1166 51.6873 38.1166C51.8392 38.1166 51.9849 38.1825 52.0923 38.2996C52.1998 38.4168 52.2601 38.5758 52.2601 38.7415V44.3652C52.2601 44.531 52.1998 44.6899 52.0923 44.8071C51.9849 44.9243 51.8392 44.9901 51.6873 44.9901ZM40.2315 15.6216C40.0796 15.6216 39.9339 15.5557 39.8265 15.4385C39.7191 15.3214 39.6587 15.1624 39.6587 14.9967V9.37294C39.6587 9.20722 39.7191 9.04828 39.8265 8.9311C39.9339 8.81391 40.0796 8.74808 40.2315 8.74808C40.3834 8.74808 40.5291 8.81391 40.6365 8.9311C40.7439 9.04828 40.8043 9.20722 40.8043 9.37294V14.9967C40.8043 15.1624 40.7439 15.3214 40.6365 15.4385C40.5291 15.5557 40.3834 15.6216 40.2315 15.6216ZM40.2315 31.2431C40.0796 31.2431 39.9339 31.1773 39.8265 31.0601C39.7191 30.9429 39.6587 30.784 39.6587 30.6183V24.9945C39.6587 24.8288 39.7191 24.6698 39.8265 24.5527C39.9339 24.4355 40.0796 24.3696 40.2315 24.3696C40.3834 24.3696 40.5291 24.4355 40.6365 24.5527C40.7439 24.6698 40.8043 24.8288 40.8043 24.9945V30.6183C40.8043 30.784 40.7439 30.9429 40.6365 31.0601C40.5291 31.1773 40.3834 31.2431 40.2315 31.2431ZM28.7757 6.87349C28.6238 6.87349 28.4781 6.80766 28.3707 6.69047C28.2632 6.57329 28.2029 6.41435 28.2029 6.24863V0.624863C28.2029 0.459139 28.2632 0.300202 28.3707 0.183018C28.4781 0.0658331 28.6238 0 28.7757 0C28.9276 0 29.0733 0.0658331 29.1807 0.183018C29.2881 0.300202 29.3485 0.459139 29.3485 0.624863V6.24863C29.3485 6.41435 29.2881 6.57329 29.1807 6.69047C29.0733 6.80766 28.9276 6.87349 28.7757 6.87349ZM28.7757 26.2442C28.6238 26.2442 28.4781 26.1784 28.3707 26.0612C28.2632 25.944 28.2029 25.7851 28.2029 25.6194V19.9956C28.2029 19.8299 28.2632 19.6709 28.3707 19.5538C28.4781 19.4366 28.6238 19.3707 28.7757 19.3707C28.9276 19.3707 29.0733 19.4366 29.1807 19.5538C29.2881 19.6709 29.3485 19.8299 29.3485 19.9956V25.6194C29.3485 25.7851 29.2881 25.944 29.1807 26.0612C29.0733 26.1784 28.9276 26.2442 28.7757 26.2442Z" fill="url(#paint15_linear_288_64)"/>
<path d="M5.85135 44.0629V39.0771H3V49.26H9.87349V46.6086H8.14252C7.53486 46.6086 6.9521 46.3404 6.52242 45.863C6.09274 45.3856 5.85135 44.7381 5.85135 44.0629ZM40.2188 19.8784V14.8926H37.3675V25.0755H44.2409V22.4241H42.51C41.9023 22.4241 41.3195 22.1559 40.8899 21.6785C40.4602 21.2011 40.2188 20.5536 40.2188 19.8784Z" fill="url(#paint16_linear_288_64)"/>
<path d="M5.86405 54.9879C5.71214 54.9879 5.56645 54.9221 5.45903 54.8049C5.35161 54.6877 5.29126 54.5288 5.29126 54.3631V48.7393C5.29126 48.5736 5.35161 48.4146 5.45903 48.2974C5.56645 48.1803 5.71214 48.1144 5.86405 48.1144C6.01596 48.1144 6.16166 48.1803 6.26908 48.2974C6.37649 48.4146 6.43684 48.5736 6.43684 48.7393V54.3631C6.43684 54.5288 6.37649 54.6877 6.26908 54.8049C6.16166 54.9221 6.01596 54.9879 5.86405 54.9879ZM5.86405 39.3663C5.71214 39.3663 5.56645 39.3005 5.45903 39.1833C5.35161 39.0661 5.29126 38.9072 5.29126 38.7415V33.1177C5.29126 32.952 5.35161 32.7931 5.45903 32.6759C5.56645 32.5587 5.71214 32.4929 5.86405 32.4929C6.01596 32.4929 6.16166 32.5587 6.26908 32.6759C6.37649 32.7931 6.43684 32.952 6.43684 33.1177V38.7415C6.43684 38.9072 6.37649 39.0661 6.26908 39.1833C6.16166 39.3005 6.01596 39.3663 5.86405 39.3663ZM17.3199 20.6205C17.168 20.6205 17.0223 20.5546 16.9148 20.4375C16.8074 20.3203 16.7471 20.1613 16.7471 19.9956V14.3718C16.7471 14.2061 16.8074 14.0472 16.9148 13.93C17.0223 13.8128 17.168 13.747 17.3199 13.747C17.4718 13.747 17.6175 13.8128 17.7249 13.93C17.8323 14.0472 17.8927 14.2061 17.8927 14.3718V19.9956C17.8927 20.1613 17.8323 20.3203 17.7249 20.4375C17.6175 20.5546 17.4718 20.6205 17.3199 20.6205ZM17.3199 47.4896C17.168 47.4896 17.0223 47.4237 16.9148 47.3065C16.8074 47.1894 16.7471 47.0304 16.7471 46.8647V41.2409C16.7471 41.0752 16.8074 40.9163 16.9148 40.7991C17.0223 40.6819 17.168 40.6161 17.3199 40.6161C17.4718 40.6161 17.6175 40.6819 17.7249 40.7991C17.8323 40.9163 17.8927 41.0752 17.8927 41.2409V46.8647C17.8927 47.0304 17.8323 47.1894 17.7249 47.3065C17.6175 47.4237 17.4718 47.4896 17.3199 47.4896ZM51.6873 20.6205C51.5354 20.6205 51.3897 20.5546 51.2823 20.4375C51.1749 20.3203 51.1145 20.1613 51.1145 19.9956V14.3718C51.1145 14.2061 51.1749 14.0472 51.2823 13.93C51.3897 13.8128 51.5354 13.747 51.6873 13.747C51.8392 13.747 51.9849 13.8128 52.0923 13.93C52.1998 14.0472 52.2601 14.2061 52.2601 14.3718V19.9956C52.2601 20.1613 52.1998 20.3203 52.0923 20.4375C51.9849 20.5546 51.8392 20.6205 51.6873 20.6205ZM51.6873 44.9901C51.5354 44.9901 51.3897 44.9243 51.2823 44.8071C51.1749 44.6899 51.1145 44.531 51.1145 44.3652V38.7415C51.1145 38.5758 51.1749 38.4168 51.2823 38.2996C51.3897 38.1825 51.5354 38.1166 51.6873 38.1166C51.8392 38.1166 51.9849 38.1825 52.0923 38.2996C52.1998 38.4168 52.2601 38.5758 52.2601 38.7415V44.3652C52.2601 44.531 52.1998 44.6899 52.0923 44.8071C51.9849 44.9243 51.8392 44.9901 51.6873 44.9901ZM40.2315 15.6216C40.0796 15.6216 39.9339 15.5557 39.8265 15.4385C39.7191 15.3214 39.6587 15.1624 39.6587 14.9967V9.37294C39.6587 9.20722 39.7191 9.04828 39.8265 8.9311C39.9339 8.81391 40.0796 8.74808 40.2315 8.74808C40.3834 8.74808 40.5291 8.81391 40.6365 8.9311C40.7439 9.04828 40.8043 9.20722 40.8043 9.37294V14.9967C40.8043 15.1624 40.7439 15.3214 40.6365 15.4385C40.5291 15.5557 40.3834 15.6216 40.2315 15.6216ZM40.2315 31.2431C40.0796 31.2431 39.9339 31.1773 39.8265 31.0601C39.7191 30.9429 39.6587 30.784 39.6587 30.6183V24.9945C39.6587 24.8288 39.7191 24.6698 39.8265 24.5527C39.9339 24.4355 40.0796 24.3696 40.2315 24.3696C40.3834 24.3696 40.5291 24.4355 40.6365 24.5527C40.7439 24.6698 40.8043 24.8288 40.8043 24.9945V30.6183C40.8043 30.784 40.7439 30.9429 40.6365 31.0601C40.5291 31.1773 40.3834 31.2431 40.2315 31.2431ZM28.7757 6.87349C28.6238 6.87349 28.4781 6.80766 28.3707 6.69047C28.2632 6.57329 28.2029 6.41435 28.2029 6.24863V0.624863C28.2029 0.459139 28.2632 0.300202 28.3707 0.183018C28.4781 0.0658331 28.6238 0 28.7757 0C28.9276 0 29.0733 0.0658331 29.1807 0.183018C29.2881 0.300202 29.3485 0.459139 29.3485 0.624863V6.24863C29.3485 6.41435 29.2881 6.57329 29.1807 6.69047C29.0733 6.80766 28.9276 6.87349 28.7757 6.87349ZM28.7757 26.2442C28.6238 26.2442 28.4781 26.1784 28.3707 26.0612C28.2632 25.944 28.2029 25.7851 28.2029 25.6194V19.9956C28.2029 19.8299 28.2632 19.6709 28.3707 19.5538C28.4781 19.4366 28.6238 19.3707 28.7757 19.3707C28.9276 19.3707 29.0733 19.4366 29.1807 19.5538C29.2881 19.6709 29.3485 19.8299 29.3485 19.9956V25.6194C29.3485 25.7851 29.2881 25.944 29.1807 26.0612C29.0733 26.1784 28.9276 26.2442 28.7757 26.2442Z" fill="url(#paint17_linear_288_64)"/>
<path d="M75.6014 7.82332C75.4494 7.82332 75.3038 7.75706 75.1963 7.63911C75.0889 7.52116 75.0286 7.36118 75.0286 7.19437V1.53385C75.0286 1.36705 75.0889 1.20707 75.1963 1.08912C75.3038 0.971171 75.4494 0.904907 75.6014 0.904907C75.7533 0.904907 75.899 0.971171 76.0064 1.08912C76.1138 1.20707 76.1742 1.36705 76.1742 1.53385V7.19437C76.1742 7.36118 76.1138 7.52116 76.0064 7.63911C75.899 7.75706 75.7533 7.82332 75.6014 7.82332Z" fill="url(#paint18_linear_288_64)"/>
<path d="M75.1963 27.4509C75.3038 27.5689 75.4494 27.6351 75.6014 27.6351C75.7533 27.6351 75.899 27.5689 76.0064 27.4509C76.1138 27.333 76.1742 27.173 76.1742 27.0062V21.3457C76.1742 21.1789 76.1138 21.0189 76.0064 20.9009C75.899 20.783 75.7533 20.7167 75.6014 20.7167C75.4494 20.7167 75.3038 20.783 75.1963 20.9009C75.0889 21.0189 75.0286 21.1789 75.0286 21.3457V27.0062C75.0286 27.173 75.0889 27.333 75.1963 27.4509Z" fill="url(#paint19_linear_288_64)"/>
<path d="M63.7405 48.8351C63.8479 48.9531 63.9936 49.0193 64.1455 49.0193C64.2975 49.0193 64.4431 48.9531 64.5506 48.8351C64.658 48.7172 64.7183 48.5572 64.7183 48.3904V42.7299C64.7183 42.5631 64.658 42.4031 64.5506 42.2851C64.4431 42.1672 64.2975 42.1009 64.1455 42.1009C63.9936 42.1009 63.8479 42.1672 63.7405 42.2851C63.6331 42.4031 63.5728 42.5631 63.5728 42.7299V48.3904C63.5728 48.5572 63.6331 48.7172 63.7405 48.8351Z" fill="url(#paint20_linear_288_64)"/>
<path d="M63.7406 21.811C63.848 21.929 63.9937 21.9952 64.1456 21.9952C64.2976 21.9952 64.4432 21.929 64.5507 21.811C64.6581 21.6931 64.7184 21.5331 64.7184 21.3663V15.7058C64.7184 15.539 64.6581 15.379 64.5507 15.261C64.4432 15.1431 64.2976 15.0768 64.1456 15.0768C63.9937 15.0768 63.848 15.1431 63.7406 15.261C63.6332 15.379 63.5728 15.539 63.5728 15.7058V21.3663C63.5728 21.5331 63.6332 21.6931 63.7406 21.811Z" fill="url(#paint21_linear_288_64)"/>
<path d="M72.2952 6.77844H79.1687V20.73H72.2952V6.77844ZM60.8394 20.73H67.7128V42.2915H60.8394V20.73Z" fill="url(#paint22_linear_288_64)"/>
<defs>
<linearGradient id="paint0_linear_288_64" x1="46.5321" y1="14.8926" x2="46.5321" y2="38.9498" gradientUnits="userSpaceOnUse">
<stop stop-color="#50C2FC"/>
<stop offset="1" stop-color="#3C5EFA"/>
</linearGradient>
<linearGradient id="paint1_linear_288_64" x1="23.6205" y1="5.72791" x2="23.6205" y2="41.2409" gradientUnits="userSpaceOnUse">
<stop stop-color="#50C2FC"/>
<stop offset="1" stop-color="#3C5EFA"/>
</linearGradient>
<linearGradient id="paint2_linear_288_64" x1="6.43674" y1="38.9498" x2="6.43674" y2="49.2601" gradientUnits="userSpaceOnUse">
<stop stop-color="#50C2FC"/>
<stop offset="1" stop-color="#3C5EFA"/>
</linearGradient>
<linearGradient id="paint3_linear_288_64" x1="23.6205" y1="14.8926" x2="23.6205" y2="49.26" gradientUnits="userSpaceOnUse">
<stop stop-color="#50C2FC"/>
<stop offset="1" stop-color="#3C5EFA"/>
</linearGradient>
<linearGradient id="paint4_linear_288_64" x1="23.6205" y1="5.72791" x2="23.6205" y2="41.2409" gradientUnits="userSpaceOnUse">
<stop stop-color="#50C2FC"/>
<stop offset="1" stop-color="#3C5EFA"/>
</linearGradient>
<linearGradient id="paint5_linear_288_64" x1="52.26" y1="19.4749" x2="52.26" y2="38.9497" gradientUnits="userSpaceOnUse">
<stop stop-color="#50C2FC"/>
<stop offset="1" stop-color="#3C5EFA"/>
</linearGradient>
<linearGradient id="paint6_linear_288_64" x1="28.7757" y1="0" x2="28.7757" y2="54.9879" gradientUnits="userSpaceOnUse">
<stop stop-color="#50C2FC"/>
<stop offset="1" stop-color="#3C5EFA"/>
</linearGradient>
<linearGradient id="paint7_linear_288_64" x1="6.43674" y1="38.9498" x2="6.43674" y2="49.2601" gradientUnits="userSpaceOnUse">
<stop stop-color="#50C2FC"/>
<stop offset="1" stop-color="#3C5EFA"/>
</linearGradient>
<linearGradient id="paint8_linear_288_64" x1="23.6205" y1="14.8926" x2="23.6205" y2="49.26" gradientUnits="userSpaceOnUse">
<stop stop-color="#50C2FC"/>
<stop offset="1" stop-color="#3C5EFA"/>
</linearGradient>
<linearGradient id="paint9_linear_288_64" x1="28.7757" y1="0" x2="28.7757" y2="54.9879" gradientUnits="userSpaceOnUse">
<stop stop-color="#50C2FC"/>
<stop offset="1" stop-color="#3C5EFA"/>
</linearGradient>
<linearGradient id="paint10_linear_288_64" x1="46.5321" y1="14.8926" x2="46.5321" y2="38.9498" gradientUnits="userSpaceOnUse">
<stop stop-color="#50C2FC"/>
<stop offset="1" stop-color="#3C5EFA"/>
</linearGradient>
<linearGradient id="paint11_linear_288_64" x1="23.6205" y1="5.72791" x2="23.6205" y2="41.2409" gradientUnits="userSpaceOnUse">
<stop stop-color="#50C2FC"/>
<stop offset="1" stop-color="#3C5EFA"/>
</linearGradient>
<linearGradient id="paint12_linear_288_64" x1="23.6205" y1="14.8926" x2="23.6205" y2="49.26" gradientUnits="userSpaceOnUse">
<stop stop-color="#50C2FC"/>
<stop offset="1" stop-color="#3C5EFA"/>
</linearGradient>
<linearGradient id="paint13_linear_288_64" x1="23.6205" y1="5.72791" x2="23.6205" y2="41.2409" gradientUnits="userSpaceOnUse">
<stop stop-color="#50C2FC"/>
<stop offset="1" stop-color="#3C5EFA"/>
</linearGradient>
<linearGradient id="paint14_linear_288_64" x1="52.26" y1="19.4749" x2="52.26" y2="38.9497" gradientUnits="userSpaceOnUse">
<stop stop-color="#50C2FC"/>
<stop offset="1" stop-color="#3C5EFA"/>
</linearGradient>
<linearGradient id="paint15_linear_288_64" x1="28.7757" y1="0" x2="28.7757" y2="54.9879" gradientUnits="userSpaceOnUse">
<stop stop-color="#50C2FC"/>
<stop offset="1" stop-color="#3C5EFA"/>
</linearGradient>
<linearGradient id="paint16_linear_288_64" x1="23.6205" y1="14.8926" x2="23.6205" y2="49.26" gradientUnits="userSpaceOnUse">
<stop stop-color="#50C2FC"/>
<stop offset="1" stop-color="#3C5EFA"/>
</linearGradient>
<linearGradient id="paint17_linear_288_64" x1="28.7757" y1="0" x2="28.7757" y2="54.9879" gradientUnits="userSpaceOnUse">
<stop stop-color="#50C2FC"/>
<stop offset="1" stop-color="#3C5EFA"/>
</linearGradient>
<linearGradient id="paint18_linear_288_64" x1="69.8735" y1="0.904907" x2="69.8735" y2="49.0193" gradientUnits="userSpaceOnUse">
<stop stop-color="#50C2FC"/>
<stop offset="1" stop-color="#3C5EFA"/>
</linearGradient>
<linearGradient id="paint19_linear_288_64" x1="69.8735" y1="0.904907" x2="69.8735" y2="49.0193" gradientUnits="userSpaceOnUse">
<stop stop-color="#50C2FC"/>
<stop offset="1" stop-color="#3C5EFA"/>
</linearGradient>
<linearGradient id="paint20_linear_288_64" x1="69.8735" y1="0.904907" x2="69.8735" y2="49.0193" gradientUnits="userSpaceOnUse">
<stop stop-color="#50C2FC"/>
<stop offset="1" stop-color="#3C5EFA"/>
</linearGradient>
<linearGradient id="paint21_linear_288_64" x1="69.8735" y1="0.904907" x2="69.8735" y2="49.0193" gradientUnits="userSpaceOnUse">
<stop stop-color="#50C2FC"/>
<stop offset="1" stop-color="#3C5EFA"/>
</linearGradient>
<linearGradient id="paint22_linear_288_64" x1="70.004" y1="6.77844" x2="70.004" y2="42.2915" gradientUnits="userSpaceOnUse">
<stop stop-color="#50C2FC"/>
<stop offset="1" stop-color="#3C5EFA"/>
</linearGradient>
</defs>
</svg>
