<svg width="55" height="60" viewBox="0 0 55 60" fill="none" xmlns="http://www.w3.org/2000/svg">
<path d="M50.9158 0H11.9802C10.8974 0.00145414 9.85937 0.471333 9.09373 1.30658C8.32809 2.14182 7.89737 3.27423 7.89604 4.45545V9.50495H4.08416C3.00138 9.5064 1.96333 9.97628 1.19769 10.8115C0.432055 11.6468 0.00133296 12.7792 0 13.9604V54.2079C0.00180114 55.7435 0.561762 57.2156 1.55708 58.3014C2.55239 59.3872 3.90182 59.998 5.30941 60H49.5545C50.9983 59.9984 52.3825 59.372 53.4034 58.2583C54.4244 57.1446 54.9986 55.6345 55 54.0594V4.45545C54.9987 3.27423 54.5679 2.14182 53.8023 1.30658C53.0367 0.471333 51.9986 0.00145414 50.9158 0ZM7.89604 54.2079C7.89604 54.9563 7.62352 55.674 7.13843 56.2032C6.65334 56.7324 5.99542 57.0297 5.30941 57.0297C4.62339 57.0297 3.96547 56.7324 3.48038 56.2032C2.99529 55.674 2.72277 54.9563 2.72277 54.2079V13.9604C2.72335 13.5667 2.86697 13.1893 3.12215 12.9109C3.37733 12.6325 3.72327 12.4759 4.08416 12.4752H7.89604V54.2079ZM52.2772 54.0594C52.2765 54.8469 51.9894 55.602 51.479 56.1589C50.9685 56.7157 50.2764 57.0289 49.5545 57.0297H9.94356C10.3868 56.1679 10.6194 55.1961 10.6188 54.2079V4.45545C10.6194 4.06175 10.763 3.68436 11.0182 3.40598C11.2734 3.1276 11.6193 2.97093 11.9802 2.9703H50.9158C51.2767 2.97093 51.6227 3.1276 51.8779 3.40598C52.133 3.68436 52.2766 4.06175 52.2772 4.45545V54.0594ZM46.9444 10.8416H15.4071C15.046 10.8416 14.6997 10.6851 14.4444 10.4066C14.1891 10.1281 14.0457 9.75032 14.0457 9.35644C14.0457 8.96255 14.1891 8.5848 14.4444 8.30628C14.6997 8.02776 15.046 7.87129 15.4071 7.87129H46.9444C47.3055 7.87129 47.6517 8.02776 47.9071 8.30628C48.1624 8.5848 48.3058 8.96255 48.3058 9.35644C48.3058 9.75032 48.1624 10.1281 47.9071 10.4066C47.6517 10.6851 47.3055 10.8416 46.9444 10.8416ZM46.9444 50.6436H15.4071C15.046 50.6436 14.6997 50.4871 14.4444 50.2086C14.1891 49.9301 14.0457 49.5523 14.0457 49.1584C14.0457 48.7645 14.1891 48.3868 14.4444 48.1083C14.6997 47.8297 15.046 47.6733 15.4071 47.6733H46.9444C47.3055 47.6733 47.6517 47.8297 47.9071 48.1083C48.1624 48.3868 48.3058 48.7645 48.3058 49.1584C48.3058 49.5523 48.1624 49.9301 47.9071 50.2086C47.6517 50.4871 47.3055 50.6436 46.9444 50.6436ZM46.9444 19.8006H36.774C36.413 19.8006 36.0667 19.6441 35.8114 19.3656C35.5561 19.0871 35.4127 18.7093 35.4127 18.3154C35.4127 17.9216 35.5561 17.5438 35.8114 17.2653C36.0667 16.9868 36.413 16.8303 36.774 16.8303H46.9444C47.3055 16.8303 47.6517 16.9868 47.9071 17.2653C48.1624 17.5438 48.3058 17.9216 48.3058 18.3154C48.3058 18.7093 48.1624 19.0871 47.9071 19.3656C47.6517 19.6441 47.3055 19.8006 46.9444 19.8006ZM15.3837 40.396C15.0226 40.3962 14.6763 40.24 14.4208 39.9616C14.1654 39.6832 14.0218 39.3055 14.0216 38.9116C14.0214 38.5177 14.1647 38.1399 14.4199 37.8613C14.675 37.5826 15.0212 37.4259 15.3823 37.4257L46.943 37.3923H46.9444C47.3055 37.3921 47.6518 37.5484 47.9073 37.8268C48.1627 38.1052 48.3063 38.4828 48.3065 38.8767C48.3067 39.2706 48.1634 39.6484 47.9082 39.9271C47.653 40.2058 47.3068 40.3624 46.9458 40.3626L15.385 40.396H15.3837ZM46.9444 30.5418H36.774C36.413 30.5418 36.0667 30.3853 35.8114 30.1068C35.5561 29.8283 35.4127 29.4505 35.4127 29.0566C35.4127 28.6627 35.5561 28.285 35.8114 28.0065C36.0667 27.728 36.413 27.5715 36.774 27.5715H46.9444C47.3055 27.5715 47.6517 27.728 47.9071 28.0065C48.1624 28.285 48.3058 28.6627 48.3058 29.0566C48.3058 29.4505 48.1624 29.8283 47.9071 30.1068C47.6517 30.3853 47.3055 30.5418 46.9444 30.5418ZM28.9975 16.7822H15.3837C15.0226 16.7822 14.6763 16.9386 14.421 17.2172C14.1657 17.4957 14.0223 17.8734 14.0223 18.2673V29.703C14.0223 30.0969 14.1657 30.4746 14.421 30.7531C14.6763 31.0316 15.0226 31.1881 15.3837 31.1881H28.9975C29.3586 31.1881 29.7049 31.0316 29.9602 30.7531C30.2155 30.4746 30.3589 30.0969 30.3589 29.703V18.2673C30.3589 17.8734 30.2155 17.4957 29.9602 17.2172C29.7049 16.9386 29.3586 16.7822 28.9975 16.7822ZM27.6361 28.2178H16.7451V19.7525H27.6361V28.2178Z" fill="url(#paint0_linear_248_42)"/>
<defs>
<linearGradient id="paint0_linear_248_42" x1="5.32533" y1="5.41738" x2="57.7716" y2="53.4931" gradientUnits="userSpaceOnUse">
<stop stop-color="#3A54FA"/>
<stop offset="1" stop-color="#50C3FD"/>
</linearGradient>
</defs>
</svg>
