<svg width="63" height="65" viewBox="0 0 63 65" fill="none" xmlns="http://www.w3.org/2000/svg">
<path d="M5.85672 0C3.93024 0 2.34226 1.91606 2.34226 4.24051C2.34226 6.07057 3.32683 7.64333 4.68562 8.22987V24.1432C2.63437 24.5821 1.32429 26.1415 0.709112 27.6261C-0.0161266 29.3762 2.93925e-05 31.0842 2.93925e-05 31.0842V39.5652C2.93925e-05 39.5652 -0.0154565 41.2719 0.709112 43.0219C1.43433 44.772 3.12413 46.6318 5.85672 46.6318H9.37119V56.5204C9.37119 56.5204 9.35128 58.5844 10.2221 60.6877C11.0937 62.7911 13.0774 65 16.3956 65H32.7899C32.9438 65.0002 33.0962 64.9637 33.2384 64.8928C33.3806 64.8219 33.5099 64.7178 33.6187 64.5866C33.7276 64.4554 33.814 64.2995 33.8729 64.128C33.9318 63.9565 33.9622 63.7726 33.9622 63.5869V56.5204H42.1611C42.3151 56.5205 42.4676 56.4841 42.6098 56.413C42.7521 56.342 42.8814 56.2378 42.9903 56.1064C43.0992 55.9751 43.1855 55.8191 43.2444 55.6474C43.3032 55.4757 43.3335 55.2917 43.3333 55.1059V18.3696C43.3335 18.1838 43.3032 17.9998 43.2444 17.8281C43.1855 17.6564 43.0992 17.5004 42.9903 17.3691C42.8814 17.2377 42.7521 17.1335 42.6098 17.0625C42.4676 16.9915 42.3151 16.955 42.1611 16.9551H33.9622V9.88855C33.9622 9.70287 33.9318 9.51902 33.8729 9.3475C33.814 9.17598 33.7276 9.02015 33.6187 8.88892C33.5099 8.75769 33.3806 8.65363 33.2384 8.5827C33.0962 8.51176 32.9438 8.47534 32.7899 8.4755H16.3956C13.0774 8.4755 11.0937 10.6844 10.2221 12.7878C9.35048 14.8911 9.37119 16.9551 9.37119 16.9551V24.0231H7.02783V8.22987C8.38693 7.64354 9.37119 6.07085 9.37119 4.24051C9.37119 1.91606 7.78319 0 5.85672 0ZM5.82573 2.82747C5.83679 2.82717 5.84564 2.82747 5.85672 2.82747C6.51738 2.82747 7.02783 3.44337 7.02783 4.24051C7.02783 5.03765 6.51738 5.64804 5.85672 5.64804C5.19606 5.64804 4.68562 5.03765 4.68562 4.24051C4.68562 3.45583 5.1801 2.84631 5.82573 2.82747ZM16.3955 11.3016H18.7377V18.3696C18.7377 18.7443 18.8611 19.1037 19.0807 19.3687C19.3003 19.6337 19.5982 19.7826 19.9088 19.7826H31.6187V53.6929H25.7666C25.6127 53.6927 25.4603 53.7292 25.3181 53.8001C25.1759 53.871 25.0467 53.9751 24.9378 54.1063C24.8289 54.2375 24.7426 54.3934 24.6836 54.5649C24.6247 54.7364 24.5944 54.9203 24.5943 55.1059V62.1739H16.3955C13.858 62.1739 12.9106 60.8489 12.3183 59.4196C11.726 57.9903 11.7087 56.5204 11.7087 56.5204V16.9551C11.7087 16.9551 11.7264 15.4852 12.3183 14.0559C12.9106 12.6266 13.858 11.3016 16.3955 11.3016ZM21.0799 11.3016H31.6187V16.9551H21.0799V11.3016ZM33.9621 19.7826H40.9899V53.6929H33.9621V19.7826ZM5.85672 26.8437H9.37119V43.8043H5.85672C3.90486 43.8044 3.25134 42.8367 2.80544 41.7607C2.35955 40.6847 2.34226 39.5652 2.34226 39.5652V31.0842C2.34226 31.0842 2.35996 29.9703 2.80544 28.8943C3.25134 27.8182 3.90488 26.8437 5.85672 26.8437ZM26.9378 56.5204H31.6188V62.1739H26.9378V56.5204Z" fill="url(#paint0_linear_290_5)"/>
<path d="M21.929 32.9166C18.5756 32.9166 15.8333 35.6589 15.8333 39.0124C15.8333 42.3658 18.5756 45.1071 21.929 45.1071C25.2825 45.1071 28.0198 42.3658 28.0198 39.0124C28.0198 35.6589 25.2825 32.9166 21.929 32.9166ZM21.929 34.9489C24.1847 34.9489 25.9925 36.7567 25.9925 39.0124C25.9925 41.268 24.1847 43.0759 21.929 43.0759C19.6733 43.0758 17.8655 41.268 17.8655 39.0124C17.8655 36.7567 19.6733 34.9489 21.929 34.9489Z" fill="url(#paint1_linear_290_5)"/>
<path d="M59.052 34.1031C57.7366 34.1032 56.6032 34.957 56.1807 36.1354H45.8449C45.5762 36.1364 45.3189 36.2438 45.1292 36.4342C44.9396 36.6245 44.8332 36.8823 44.8333 37.151C44.8332 37.4197 44.9396 37.6775 45.1292 37.8679C45.3189 38.0582 45.5762 38.1657 45.8449 38.1666H56.1807C56.6032 39.345 57.7366 40.1989 59.052 40.1989C60.7227 40.1989 62.0959 38.8217 62.0959 37.151C62.0959 35.4803 60.7227 34.1031 59.052 34.1031ZM59.052 36.1354C59.6249 36.1354 60.0637 36.5781 60.0637 37.151C60.0637 37.724 59.6249 38.1666 59.052 38.1666C58.479 38.1666 58.0364 37.724 58.0364 37.151C58.0364 36.5781 58.479 36.1354 59.052 36.1354Z" fill="url(#paint2_linear_290_5)"/>
<path d="M57.0198 21.9166C55.7042 21.9166 54.5709 22.7702 54.1484 23.9489H52.9563C52.8229 23.9485 52.6907 23.9744 52.5673 24.0251C52.4439 24.0758 52.3318 24.1503 52.2372 24.2444L48.4732 28.0124H45.8449C45.5762 28.0133 45.3189 28.1208 45.1292 28.3111C44.9396 28.5015 44.8332 28.7593 44.8333 29.028C44.8342 29.296 44.9411 29.5528 45.1306 29.7423C45.3201 29.9318 45.5769 30.0387 45.8449 30.0396H48.8928C49.0263 30.0402 49.1587 30.0143 49.2822 29.9636C49.4058 29.9129 49.5181 29.8383 49.6128 29.7441L53.3768 25.9801H54.1484C54.5711 27.1583 55.7045 28.0124 57.0198 28.0124C58.6905 28.0124 60.0637 26.6352 60.0637 24.9645C60.0637 23.2938 58.6905 21.9166 57.0198 21.9166ZM57.0198 23.9489C57.5927 23.9489 58.0364 24.3915 58.0364 24.9645C58.0364 25.5374 57.5927 25.9801 57.0198 25.9801C56.4468 25.9801 56.0041 25.5374 56.0041 24.9645C56.0041 24.3915 56.4468 23.9489 57.0198 23.9489Z" fill="url(#paint3_linear_290_5)"/>
<path d="M45.8449 44.2623C45.5769 44.2633 45.3201 44.3702 45.1306 44.5597C44.9411 44.7492 44.8342 45.006 44.8333 45.274C44.8332 45.5427 44.9396 45.8005 45.1292 45.9908C45.3189 46.1812 45.5762 46.2887 45.8449 46.2896H48.4732L52.2372 50.0575C52.3318 50.1516 52.4439 50.2262 52.5673 50.2769C52.6907 50.3276 52.8229 50.3535 52.9563 50.3531H54.1484C54.5709 51.5318 55.7042 52.3853 57.0198 52.3854C58.6905 52.3854 60.0637 51.0082 60.0637 49.3375C60.0637 47.6668 58.6905 46.2896 57.0198 46.2896C55.7045 46.2896 54.5711 47.1437 54.1484 48.3219H53.3768L49.6128 44.5579C49.5181 44.4637 49.4058 44.3891 49.2822 44.3384C49.1587 44.2877 49.0263 44.2618 48.8928 44.2623H45.8449ZM57.0198 48.3219C57.5927 48.3219 58.0364 48.7645 58.0364 49.3375C58.0364 49.9104 57.5927 50.3531 57.0198 50.3531C56.4468 50.3531 56.0041 49.9104 56.0041 49.3375C56.0041 48.7645 56.4468 48.3219 57.0198 48.3219Z" fill="url(#paint4_linear_290_5)"/>
<path d="M45.8491 31.9166C45.7157 31.9166 45.5836 31.9428 45.4603 31.9939C45.3371 32.0449 45.2251 32.1198 45.1307 32.2141C45.0364 32.3084 44.9616 32.4204 44.9105 32.5437C44.8595 32.667 44.8332 32.7991 44.8333 32.9325C44.8332 33.0659 44.8595 33.198 44.9105 33.3213C44.9616 33.4446 45.0364 33.5566 45.1307 33.6509C45.2251 33.7452 45.3371 33.8201 45.4603 33.8711C45.5836 33.9222 45.7157 33.9484 45.8491 33.9484H47.8809C48.0143 33.9484 48.1464 33.9222 48.2697 33.8711C48.3929 33.8201 48.5049 33.7452 48.5993 33.6509C48.6936 33.5566 48.7685 33.4446 48.8195 33.3213C48.8705 33.198 48.8968 33.0659 48.8968 32.9325C48.8968 32.7991 48.8705 32.667 48.8195 32.5437C48.7685 32.4204 48.6936 32.3084 48.5993 32.2141C48.5049 32.1198 48.3929 32.0449 48.2697 31.9939C48.1464 31.9428 48.0143 31.9166 47.8809 31.9166H45.8491Z" fill="url(#paint5_linear_290_5)"/>
<path d="M45.8491 39.9166C45.7157 39.9166 45.5836 39.9428 45.4603 39.9939C45.3371 40.0449 45.2251 40.1198 45.1307 40.2141C45.0364 40.3084 44.9616 40.4204 44.9105 40.5437C44.8595 40.667 44.8332 40.7991 44.8333 40.9325C44.8332 41.0659 44.8595 41.198 44.9105 41.3213C44.9616 41.4446 45.0364 41.5566 45.1307 41.6509C45.2251 41.7452 45.3371 41.8201 45.4603 41.8711C45.5836 41.9222 45.7157 41.9484 45.8491 41.9484H47.8809C48.0143 41.9484 48.1464 41.9222 48.2697 41.8711C48.3929 41.8201 48.5049 41.7452 48.5993 41.6509C48.6936 41.5566 48.7685 41.4446 48.8195 41.3213C48.8705 41.198 48.8968 41.0659 48.8968 40.9325C48.8968 40.7991 48.8705 40.667 48.8195 40.5437C48.7685 40.4204 48.6936 40.3084 48.5993 40.2141C48.5049 40.1198 48.3929 40.0449 48.2697 39.9939C48.1464 39.9428 48.0143 39.9166 47.8809 39.9166H45.8491Z" fill="url(#paint6_linear_290_5)"/>
<defs>
<linearGradient id="paint0_linear_290_5" x1="-605.193" y1="65.1" x2="263.931" y2="65.1" gradientUnits="userSpaceOnUse">
<stop offset="0.2" stop-color="#7CD2FD"/>
<stop offset="0.8" stop-color="#3A54FA"/>
</linearGradient>
<linearGradient id="paint1_linear_290_5" x1="5.22995" y1="41.9515" x2="62.1047" y2="41.9515" gradientUnits="userSpaceOnUse">
<stop stop-color="#3B58FA"/>
<stop offset="1" stop-color="#5FA8E4"/>
</linearGradient>
<linearGradient id="paint2_linear_290_5" x1="5.22995" y1="41.9515" x2="62.1047" y2="41.9515" gradientUnits="userSpaceOnUse">
<stop stop-color="#3B58FA"/>
<stop offset="1" stop-color="#5FA8E4"/>
</linearGradient>
<linearGradient id="paint3_linear_290_5" x1="5.22995" y1="41.9515" x2="62.1047" y2="41.9515" gradientUnits="userSpaceOnUse">
<stop stop-color="#3B58FA"/>
<stop offset="1" stop-color="#5FA8E4"/>
</linearGradient>
<linearGradient id="paint4_linear_290_5" x1="5.22995" y1="41.9515" x2="62.1047" y2="41.9515" gradientUnits="userSpaceOnUse">
<stop stop-color="#3B58FA"/>
<stop offset="1" stop-color="#5FA8E4"/>
</linearGradient>
<linearGradient id="paint5_linear_290_5" x1="5.22995" y1="41.9515" x2="62.1047" y2="41.9515" gradientUnits="userSpaceOnUse">
<stop stop-color="#3B58FA"/>
<stop offset="1" stop-color="#5FA8E4"/>
</linearGradient>
<linearGradient id="paint6_linear_290_5" x1="5.22995" y1="41.9515" x2="62.1047" y2="41.9515" gradientUnits="userSpaceOnUse">
<stop stop-color="#3B58FA"/>
<stop offset="1" stop-color="#5FA8E4"/>
</linearGradient>
</defs>
</svg>
