<svg width="30" height="30" viewBox="0 0 30 30" fill="none" xmlns="http://www.w3.org/2000/svg">
<path d="M29.7393 6.91576L21.513 0.606848C20.9339 0.152194 20.1437 -0.0634147 19.3373 0.0162669L6.26176 1.44116H0.265191C0.119066 1.44116 0 1.54428 0 1.67083C0 1.79739 0.119066 1.9005 0.265191 1.9005H6.29423L19.4023 0.470921C20.0517 0.409988 20.6903 0.578725 21.1558 0.949011L29.3929 7.26729C29.4362 7.3001 29.4633 7.34698 29.4633 7.40322C29.4633 7.43603 29.4579 7.50165 29.3929 7.56258L29.0845 7.82975C28.4458 8.38284 27.4771 8.45783 26.7356 8.01724L21.3723 4.72686C21.3723 4.70342 21.3777 4.68467 21.3777 4.66124C21.3777 3.66287 20.4414 2.85668 19.294 2.85668H14.0876C13.9415 2.85668 13.8224 2.9598 13.8224 3.08635C13.8224 3.21291 13.9415 3.31602 14.0876 3.31602H19.294C20.1491 3.31602 20.8473 3.92067 20.8473 4.66124C20.8473 4.69873 20.8365 4.73623 20.8365 4.77841C20.831 4.79248 20.831 4.80654 20.831 4.8206C20.739 5.4768 20.1004 5.99239 19.3211 6.00645L15.5597 6.0627C14.7912 6.07207 14.0497 6.22206 13.357 6.50329L11.571 7.22511C10.0664 7.82975 8.22093 7.73132 6.81379 6.96263L6.08316 6.56422C6.03987 6.54078 5.99116 6.52672 5.94245 6.52672H0.265191C0.119066 6.52672 0 6.62984 0 6.75639C0 6.88295 0.119066 6.98606 0.265191 6.98606H5.86668L6.53237 7.35166C7.41453 7.83444 8.432 8.08755 9.47653 8.08755C10.2721 8.08755 11.0785 7.93287 11.7983 7.64227L13.5843 6.92044C14.2121 6.66734 14.8778 6.5361 15.5705 6.52204L19.3319 6.46579C20.2357 6.45173 20.9934 5.93145 21.2694 5.22369L26.438 8.39221C26.8493 8.63594 27.3201 8.75781 27.7856 8.75781C28.3971 8.75781 29.0033 8.55157 29.4633 8.15317L29.7718 7.886C29.9233 7.75476 30.0099 7.56727 29.9991 7.38447C29.9883 7.20167 29.8909 7.02825 29.7393 6.91576Z" fill="url(#paint0_linear_248_30)"/>
<path d="M10.0827 25.8753C10.1585 25.3363 10.6834 24.9051 11.3221 24.8957L14.5152 24.8488C15.17 24.8394 15.8087 24.7129 16.404 24.4738L17.9194 23.8645C19.1858 23.3536 20.7391 23.438 21.9189 24.0848L22.5413 24.4223C22.5846 24.4457 22.6333 24.4598 22.682 24.4598H27.5041C27.6503 24.4598 27.7693 24.3567 27.7693 24.2301C27.7693 24.1036 27.6503 24.0004 27.5041 24.0004H22.7632L22.2111 23.6958C20.8798 22.9646 19.1317 22.8708 17.7029 23.4474L16.1875 24.0614C15.6625 24.2723 15.0997 24.3848 14.5152 24.3942L11.3221 24.441C10.559 24.4504 9.90951 24.8863 9.66055 25.4769L5.32007 22.8146C4.50285 22.3224 3.39879 22.4115 2.69522 23.0208L2.43544 23.2458C2.29473 23.3677 2.22437 23.5317 2.22978 23.7005C2.23519 23.8645 2.32179 24.0192 2.4625 24.1176L9.44948 29.475C9.88245 29.8125 10.4507 30 11.046 30C11.138 30 11.2355 29.9953 11.3275 29.9859L22.4222 28.772H27.515C27.6611 28.772 27.7802 28.6689 27.7802 28.5423C27.7802 28.4157 27.6611 28.3126 27.515 28.3126H22.3897L11.2625 29.5266C10.7213 29.5828 10.1909 29.4375 9.80668 29.1282L2.80346 23.7614C2.7764 23.7427 2.76017 23.7098 2.75475 23.6723C2.75475 23.6489 2.76017 23.602 2.80346 23.5645L3.06324 23.3396C3.59362 22.8802 4.3892 22.8193 5.00617 23.1849L9.54149 25.9644C9.54149 25.9784 9.53607 25.9878 9.53607 26.0019C9.53607 26.869 10.3479 27.5721 11.3491 27.5721H15.7708C15.9169 27.5721 16.036 27.4689 16.036 27.3424C16.036 27.2158 15.9169 27.1127 15.7708 27.1127H11.3491C10.6455 27.1127 10.0719 26.6159 10.0719 26.0065C10.0719 25.9737 10.0773 25.9456 10.0827 25.9175C10.0827 25.8987 10.0827 25.8894 10.0827 25.8753Z" fill="url(#paint1_linear_248_30)"/>
<path d="M9.63337 13.9277C9.34653 13.9277 9.1084 14.1293 9.1084 14.3824V15.812C9.1084 16.0604 9.34112 16.2666 9.63337 16.2666H10.5101C10.6833 17.0072 11.0134 17.6962 11.4951 18.329L10.8781 18.8633C10.7807 18.9477 10.7266 19.0602 10.7266 19.182C10.7266 19.3039 10.7807 19.4164 10.8781 19.5008L12.0472 20.5132C12.2528 20.6913 12.5829 20.6913 12.7886 20.5132L13.4056 19.9788C14.1254 20.3913 14.9426 20.6866 15.7869 20.8319V21.5912C15.7869 21.8396 16.0196 22.0459 16.3119 22.0459H17.9625C18.2494 22.0459 18.4875 21.8443 18.4875 21.5912V20.8319C19.3318 20.6819 20.149 20.3913 20.8688 19.9788L21.4858 20.5132C21.6915 20.6913 22.0216 20.6913 22.2273 20.5132L23.3963 19.5008C23.6019 19.3226 23.6019 19.0367 23.3963 18.8586L22.7793 18.3243C23.261 17.6962 23.5965 17.0025 23.7643 16.2619H24.641C24.9279 16.2619 25.166 16.0604 25.166 15.8073V14.3777C25.166 14.1293 24.9333 13.923 24.641 13.923H23.7643C23.5911 13.1919 23.2555 12.4841 22.7793 11.8607L23.3963 11.3264C23.6019 11.1483 23.6019 10.8623 23.3963 10.6842L22.2273 9.6718C22.0216 9.49369 21.6915 9.49369 21.4858 9.6718L20.8688 10.2061C20.149 9.79366 19.3318 9.49837 18.4875 9.35307V8.59375C18.4875 8.34533 18.2548 8.1391 17.9625 8.1391H16.3119C16.025 8.1391 15.7869 8.34065 15.7869 8.59375V9.35307C14.9426 9.50306 14.1254 9.79366 13.4056 10.2061L12.7886 9.6718C12.5829 9.49369 12.2528 9.49369 12.0472 9.6718L10.8781 10.6842C10.7807 10.7686 10.7266 10.8858 10.7266 11.0029C10.7266 11.1248 10.7807 11.2373 10.8781 11.3217L11.4951 11.856C11.0189 12.4794 10.6779 13.1872 10.5101 13.9184H9.63337V13.9277ZM10.9918 14.1949C11.1487 13.3887 11.5059 12.6388 12.058 11.9685C12.1337 11.8748 12.1229 11.7529 12.0309 11.6732L11.257 11.0123L12.4098 9.9999L13.1837 10.6702C13.2757 10.7498 13.4218 10.7592 13.5246 10.6936C14.2986 10.2155 15.1591 9.90616 16.0954 9.77023C16.2253 9.75148 16.3173 9.65305 16.3173 9.54056L16.3064 8.59844L17.9517 8.58907V9.54056C17.9517 9.65305 18.0437 9.75148 18.1736 9.77023C19.1045 9.90616 19.9704 10.2155 20.7443 10.6936C20.8526 10.7592 20.9933 10.7498 21.0853 10.6702L21.8484 9.9999L23.0174 10.9983L22.2435 11.6685C22.1515 11.7482 22.1407 11.8748 22.2164 11.9638C22.7685 12.6341 23.1257 13.3793 23.2826 14.1902C23.3043 14.3027 23.4179 14.3824 23.5478 14.3824H24.6356L24.6464 15.7979H23.5478C23.4179 15.7979 23.3043 15.8776 23.2826 15.9901C23.1257 16.7963 22.7685 17.5462 22.2164 18.2165C22.1407 18.3102 22.1515 18.4321 22.2435 18.5118L23.0174 19.1727L21.8646 20.1851L21.0907 19.5148C20.9987 19.4351 20.8526 19.4258 20.7498 19.4914C19.9758 19.9695 19.1153 20.2788 18.179 20.4148C18.0491 20.4335 17.9571 20.5319 17.9571 20.6444L17.968 21.5865L16.3227 21.5959V20.6444C16.3227 20.5319 16.2307 20.4335 16.1008 20.4148C15.1699 20.2788 14.304 19.9695 13.5301 19.4914C13.4813 19.4633 13.4272 19.4492 13.3731 19.4492C13.3028 19.4492 13.2378 19.4726 13.1837 19.5148L12.4206 20.1851L11.2516 19.1867L12.0255 18.5165C12.1175 18.4368 12.1283 18.3102 12.0526 18.2212C11.5005 17.5509 11.1433 16.8056 10.9864 15.9948C10.9647 15.8823 10.8511 15.8026 10.7212 15.8026L9.63337 15.812L9.62254 14.3871H10.7212C10.8565 14.3871 10.9701 14.3074 10.9918 14.1949Z" fill="url(#paint2_linear_248_30)"/>
<path d="M17.1347 19.1117C19.6892 19.1117 21.7674 17.3119 21.7674 15.0995C21.7674 12.8872 19.6892 11.0873 17.1347 11.0873C14.5802 11.0873 12.502 12.8872 12.502 15.0995C12.502 17.3119 14.5748 19.1117 17.1347 19.1117ZM17.1347 11.542C19.3969 11.542 21.237 13.1356 21.237 15.0949C21.237 17.0541 19.3969 18.6477 17.1347 18.6477C14.8724 18.6477 13.0323 17.0541 13.0323 15.0949C13.0323 13.1356 14.8724 11.542 17.1347 11.542Z" fill="url(#paint3_linear_248_30)"/>
<path d="M16.9934 17.5275C17.0367 17.5509 17.0854 17.5603 17.1287 17.5603C17.1774 17.5603 17.2261 17.5509 17.264 17.5275C18.6549 16.8056 19.4938 16.0182 19.8293 15.1276C19.8293 15.123 19.8293 15.123 19.8348 15.1183C20.0404 14.4714 19.7806 13.8012 19.1907 13.459C18.6062 13.1169 17.8431 13.159 17.1287 13.5668C16.4143 13.159 15.6512 13.1169 15.0667 13.459C14.4768 13.8059 14.217 14.4714 14.4281 15.1323C14.7637 16.0182 15.6025 16.8056 16.9934 17.5275ZM15.3698 13.8387C15.543 13.7356 15.7432 13.684 15.9489 13.684C16.2682 13.684 16.62 13.8012 16.9718 14.0309C17.0692 14.0918 17.1991 14.0918 17.2911 14.0309C17.8702 13.6512 18.4547 13.5809 18.8931 13.8387C19.2936 14.073 19.4667 14.5371 19.3206 14.9917C19.0392 15.7417 18.3194 16.4166 17.1287 17.0588C15.9327 16.4166 15.2183 15.737 14.9368 14.9964C14.7961 14.5418 14.9693 14.073 15.3698 13.8387Z" fill="url(#paint4_linear_248_30)"/>
<defs>
<linearGradient id="paint0_linear_248_30" x1="-0.00270603" y1="4.37626" x2="29.9964" y2="4.37626" gradientUnits="userSpaceOnUse">
<stop stop-color="#7CD2FD"/>
<stop offset="0.3125" stop-color="#3A54FA"/>
</linearGradient>
<linearGradient id="paint1_linear_248_30" x1="2.22166" y1="26.2432" x2="27.7715" y2="26.2432" gradientUnits="userSpaceOnUse">
<stop offset="0.697115" stop-color="#3A54FA"/>
<stop offset="1" stop-color="#7CD2FD"/>
</linearGradient>
<linearGradient id="paint2_linear_248_30" x1="9.10948" y1="15.0958" x2="25.1568" y2="15.0958" gradientUnits="userSpaceOnUse">
<stop offset="0.653846" stop-color="#3A54FA"/>
<stop offset="1" stop-color="#5FE4D4"/>
</linearGradient>
<linearGradient id="paint3_linear_248_30" x1="12.4982" y1="15.0953" x2="21.768" y2="15.0953" gradientUnits="userSpaceOnUse">
<stop stop-color="#8526FE"/>
<stop offset="1" stop-color="#5FE4D4"/>
</linearGradient>
<linearGradient id="paint4_linear_248_30" x1="14.3599" y1="15.3934" x2="19.9067" y2="15.3934" gradientUnits="userSpaceOnUse">
<stop stop-color="#8526FE"/>
<stop offset="1" stop-color="#5FE4D4"/>
</linearGradient>
</defs>
</svg>
